<?xml version="1.0" encoding="UTF-8"?>
<svg id="Layer_1" xmlns="http://www.w3.org/2000/svg" version="1.1" viewBox="0 0 340 388">
  <!-- Generator: Adobe Illustrator 29.2.1, SVG Export Plug-In . SVG Version: 2.1.0 Build 116)  -->
  <g>
    <path d="M62.5,375.5c-34.2,0-62-25.3-62-56.5s27.8-56.5,62-56.5,62,25.3,62,56.5-27.8,56.5-62,56.5Z"/>
    <path d="M62.5,263c33.9,0,61.5,25.1,61.5,56s-27.6,56-61.5,56S1,349.9,1,319s27.6-56,61.5-56M62.5,262C28,262,0,287.5,0,319s28,57,62.5,57,62.5-25.5,62.5-57-28-57-62.5-57h0Z"/>
  </g>
  <g>
    <path d="M277.5,375.5c-34.2,0-62-25.3-62-56.5s27.8-56.5,62-56.5,62,25.3,62,56.5-27.8,56.5-62,56.5Z"/>
    <path d="M277.5,263c33.9,0,61.5,25.1,61.5,56s-27.6,56-61.5,56-61.5-25.1-61.5-56,27.6-56,61.5-56M277.5,262c-34.5,0-62.5,25.5-62.5,57s28,57,62.5,57,62.5-25.5,62.5-57-28-57-62.5-57h0Z"/>
  </g>
  <g>
    <rect x="95.5" y="22.5" width="29" height="296"/>
    <path d="M124,23v295h-28V23h28M125,22h-30v297h30V22h0Z"/>
  </g>
  <g>
    <rect x="310.5" y="15.5" width="29" height="296"/>
    <path d="M339,16v295h-28V16h28M340,15h-30v297h30V15h0Z"/>
  </g>
  <g>
    <rect x="95.5" y=".5" width="244" height="29"/>
    <path d="M339,1v28H96V1h243M340,0H95v30h245V0h0Z"/>
  </g>
</svg>