<?xml version="1.0" encoding="UTF-8"?>
<svg id="Layer_1" xmlns="http://www.w3.org/2000/svg" version="1.1" viewBox="0 0 316 442">
  <!-- Generator: Adobe Illustrator 29.2.1, SVG Export Plug-In . SVG Version: 2.1.0 Build 116)  -->
  <defs>
    <style>
      .st0 {
        fill: #515670;
      }

      .st1 {
        fill: #979bbf;
      }

      .st2 {
        fill: #bcc1e2;
      }

      .st3 {
        fill: #7f8cb2;
      }

      .st4 {
        fill: #bcc1dd;
      }
    </style>
  </defs>
  <path class="st3" d="M161,377.4h0c6.2,0,11.2,5,11.2,11.2v18.9c0,6.2-5,11.2-11.2,11.2h-18.9c-6.2,0-11.2-5-11.2-11.2h0c0-16.6,13.5-30,30-30Z" transform="translate(-99.3 53.9) rotate(-15.2)"/>
  <path class="st3" d="M216.6,357.2h0c16.6,0,30,13.5,30,30h0c0,6.2-5,11.2-11.2,11.2h-18.9c-6.2,0-11.2-5-11.2-11.2v-18.9c0-6.2,5-11.2,11.2-11.2Z" transform="translate(-91.4 72.7) rotate(-15.2)"/>
  <path class="st1" d="M17.5,219.9C-1,128.7,2.6,49.3,91.3,25.1,178.2,1.4,222.9,67.7,253.7,155.6c50.2,143.4,78.1,153.4-73.7,194.8-146.9,40-132.5,16.6-162.4-130.4Z"/>
  <path class="st4" d="M273,243.6c21.1,97.7,51.5,103.7-85.6,137.8-118.9,29.5-96.5,39.5-143.7-75.3C2.3,205.1,9.3,218.6,134.3,184.5c126.7-34.5,116.3-45,138.8,59Z"/>
  <path class="st3" d="M263.1,136.9h0c16.6,0,30,13.5,30,30v134.5c0,6.2-5,11.2-11.2,11.2h-18.9c-6.2,0-11.2-5-11.2-11.2v-153.3c0-6.2,5-11.2,11.2-11.2Z" transform="translate(-49.5 79.6) rotate(-15.2)"/>
  <path class="st3" d="M49.4,204h0c6.2,0,11.2,5,11.2,11.2v153.3c0,6.2-5,11.2-11.2,11.2h-18.9c-6.2,0-11.2-5-11.2-11.2v-134.5c0-16.6,13.5-30,30-30Z" transform="translate(-75.4 20.8) rotate(-15.2)"/>
  <path class="st0" d="M83.5,143.6c9.3,0,18.3-8.2,17.9-17.9s-7.8-17.9-17.9-17.9-18.3,8.2-17.9,17.9,7.8,17.9,17.9,17.9h0Z"/>
  <path class="st0" d="M143.7,127.2c9.3,0,18.3-8.2,17.9-17.9-.4-9.7-7.8-17.9-17.9-17.9s-18.3,8.2-17.9,17.9,7.8,17.9,17.9,17.9h0Z"/>
  <path class="st0" d="M124.1,143.8h.8c7.1,0,12.9,5.8,12.9,12.9v3.1c0,3.3-2.7,6.1-6.1,6.1h-15.2c-3.1,0-5.6-2.5-5.6-5.6v-3.3c0-7.3,5.9-13.2,13.2-13.2Z" transform="translate(-36.4 38.2) rotate(-15.2)"/>
  <g>
    <path class="st0" d="M115.7,268.1l-4.8,1.3,2,26.4-12.1,3.3-11.7-23.7-4.8,1.3,1.9,26.4-5.5,1.5-2.4-34.2,12.9-3.5,11.8,23.9,3.8-1-2-26.6,12.9-3.5,15.4,30.7-5.5,1.5-11.8-23.7Z"/>
    <path class="st0" d="M139.1,288.7l-8.9-32.5,6.2-1.7,8.9,32.5-6.2,1.7Z"/>
    <path class="st0" d="M192.8,266.8l1.8,6.8-7.1,1.9-20.9-8.3-7.8,2.1-1.7-6.4,22.2-6c2.4-.6,4.3-2.3,3.7-4.3-.5-1.9-2.8-2.6-5.5-1.8l-27.6,7.5,7,25.6-5.3,1.4-8.9-32.5,26.7-7.3c5.1-1.4,15.1-2.9,17.3,5.2,2.2,7.9-3.5,11.9-10.9,14l-1.2.3,10.1,4,7.9-2.2Z"/>
    <path class="st0" d="M233.3,228.1l8.9,32.5-11,3-26.6-19.7-5.4,1.5,6.8,25.1-5.2,1.4-8.9-32.5,11-3,26.6,19.7,5.5-1.5-6.8-25.1,5.2-1.4Z"/>
  </g>
  <circle class="st2" cx="83.6" cy="134.8" r="4.5"/>
  <circle class="st2" cx="144.1" cy="118.2" r="4.5"/>
</svg>