<?xml version="1.0" encoding="UTF-8"?>
<svg xmlns="http://www.w3.org/2000/svg" xmlns:xlink="http://www.w3.org/1999/xlink" version="1.1" viewBox="0 0 543.6 1186.2">
  <!-- Generator: Adobe Illustrator 29.2.1, SVG Export Plug-In . SVG Version: 2.1.0 Build 116)  -->
  <defs>
    <style>
      .st0 {
        fill: none;
      }

      .st1 {
        fill: #71463a;
      }

      .st2 {
        fill: #ffa755;
      }

      .st3 {
        fill: #da978a;
      }

      .st4 {
        fill: #f8f4ec;
      }

      .st5 {
        clip-path: url(#clippath-1);
      }

      .st6 {
        clip-path: url(#clippath-3);
      }

      .st7 {
        clip-path: url(#clippath-2);
      }

      .st8 {
        fill: #ffd694;
      }

      .st9 {
        fill: #fffe6a;
      }

      .st10 {
        fill: #fff;
      }

      .st11 {
        fill: #45251f;
      }

      .st12 {
        fill: #ffe2d4;
      }

      .st13 {
        clip-path: url(#clippath);
      }

      .st14 {
        fill: #a1776e;
      }
    </style>
    <clipPath id="clippath">
      <rect class="st0" x="453.4" y="656.6" width="30.4" height="37.9"/>
    </clipPath>
    <clipPath id="clippath-1">
      <rect class="st0" x="446.5" y="384.8" width="51.2" height="46"/>
    </clipPath>
    <clipPath id="clippath-2">
      <rect class="st0" x="448.6" y="509.2" width="48.7" height="48.7"/>
    </clipPath>
    <clipPath id="clippath-3">
      <rect class="st0" x="460.8" y="773" width="36.5" height="50.7"/>
    </clipPath>
  </defs>
  <g id="Layer_1">
    <rect class="st11" x="-1.8" y=".5" width="547.2" height="1186.2"/>
    <polygon class="st14" points="207 704.6 209.5 724.1 197.9 735.9 87.2 888.1 63.6 935.7 61.2 951.4 69.4 977.8 102.1 1022 128.1 1053.8 123.6 1070.8 311.6 1072.9 332.3 1060.9 363.7 998.9 370.7 961.7 386 949.3 396.7 934 414.5 912.9 438.3 896.8 438.3 719.9 410.7 683.1 207 704.6"/>
    <polygon class="st12" points="224.6 384.4 206.9 416.1 164.7 432.5 143.4 444.8 136.5 467.2 130.7 534.7 164.7 542.4 159.6 586.7 175.2 621.4 207.8 700.4 220.9 708 256 708 315.1 702.4 353.3 686.9 361.1 593.6 357.2 559.7 366.4 554.4 428.5 554.4 428.5 503.1 417 444.1 402.7 435.8 358.5 410.3 340.8 406.5 333 392.9 319.1 384.4 224.6 384.4"/>
    <polygon class="st3" points="254.1 503.1 227.4 440.4 224.6 384.4 298.2 354.3 254.1 503.1"/>
    <path class="st3" d="M305.8,333.4c0,26.8-45.1,61.7-75.6,53.3s-38.9-26.6-38.9-53.3-8.9-56.3,57-58,57.4,31.2,57.4,58Z"/>
    <path class="st1" d="M176,261.5c-2.9,98.6-10,30.1,74.4,30.1s72,67.9,75.1-33.7c.7-23.7-33.2-66.3-68.9-68.6s-79.1,20.7-80.6,72.1Z"/>
    <path class="st1" d="M286.5,395.1c-10.4,34.9-37.5,67-19.2,75.9s37.3-33.7,47.7-68.6,4.8-60.8-5.2-70.4-12.8,28.2-23.2,63.1Z"/>
    <path class="st3" d="M327.3,315.8c-3.5,8.5-12.1,23.1-19.2,23.1s-6.7-13.9-6.7-23.1,10.4-20,17.5-21.1,12.2,12,8.4,21.1Z"/>
    <polygon class="st3" points="136.7 536 133.7 601 136.4 632.2 129.5 661.7 129.5 690.5 139.1 736.8 150.6 771.1 150.6 801.1 133.1 827.5 140 867.8 140 875 121.7 891.2 116.7 900 127.7 900 116.3 918.3 122.6 929.2 133.4 926.7 133.4 935.7 143.3 935.7 150.6 935.7 175.8 915.9 205.2 890 205.2 881 219.8 872.6 336.2 794.5 402.3 728.4 421.6 624.4 428.5 554.4 366.4 554.4 357.2 559.7 357.3 611.8 352.5 652.1 307.4 744.6 219.1 820.3 208.8 805.9 175.8 593.6 160.2 572.8 164.7 542.4 136.7 536"/>
    <g>
      <path class="st10" d="M28.7,1014.9v7.9c1.3-1.6,2.9-2.3,4.8-2.3s1.8.2,2.6.5,1.3.8,1.7,1.3.6,1.2.8,1.8.2,1.7.2,3.1v9.1h-4.1v-8.2c0-1.6,0-2.7-.2-3.1s-.4-.8-.8-1c-.4-.3-.9-.4-1.5-.4s-1.3.2-1.8.5-.9.8-1.2,1.5c-.2.7-.4,1.7-.4,3v7.8h-4.1v-21.5h4.1Z"/>
      <path class="st10" d="M46,1025.6l-3.7-.7c.4-1.5,1.1-2.6,2.2-3.3s2.5-1.1,4.6-1.1,3.2.2,4.1.7,1.5,1,1.9,1.7c.4.7.5,1.9.5,3.7v4.8c0,1.4,0,2.4.2,3,.1.7.4,1.3.7,2.1h-4.1c-.1-.3-.2-.7-.4-1.2,0-.2-.1-.4-.1-.5-.7.7-1.5,1.2-2.3,1.5s-1.7.5-2.6.5c-1.6,0-2.9-.4-3.8-1.3s-1.4-2-1.4-3.3.2-1.7.6-2.4c.4-.7,1-1.2,1.8-1.6.8-.4,1.8-.7,3.3-1,1.9-.4,3.3-.7,4-1v-.4c0-.8-.2-1.4-.6-1.7-.4-.3-1.1-.5-2.2-.5s-1.3.1-1.7.4-.7.8-1,1.5ZM51.5,1028.9c-.5.2-1.4.4-2.5.6s-1.9.5-2.2.7c-.5.4-.8.9-.8,1.5s.2,1.1.6,1.5,1,.6,1.6.6,1.5-.2,2.1-.7c.5-.4.8-.8,1-1.4.1-.4.2-1,.2-2v-.8Z"/>
      <path class="st10" d="M59.3,1020.8h3.8v2.1c1.4-1.7,3-2.5,4.8-2.5s1.9.2,2.6.6,1.3,1,1.8,1.9c.7-.8,1.4-1.5,2.2-1.9s1.6-.6,2.5-.6,2.1.2,2.9.7c.8.5,1.4,1.1,1.8,2,.3.7.4,1.7.4,3.2v9.9h-4.1v-8.9c0-1.5-.1-2.5-.4-3-.4-.6-1-.9-1.8-.9s-1.1.2-1.6.5-.9.9-1.1,1.5-.3,1.8-.3,3.2v7.5h-4.1v-8.5c0-1.5,0-2.5-.2-2.9s-.4-.8-.7-1-.7-.3-1.3-.3-1.2.2-1.7.5-.9.8-1.1,1.5-.3,1.7-.3,3.2v7.6h-4.1v-15.6Z"/>
      <path class="st10" d="M84.8,1031.9l4.1-.6c.2.8.5,1.4,1.1,1.8s1.3.6,2.3.6,1.9-.2,2.4-.6c.4-.3.5-.6.5-1.1s0-.6-.3-.8c-.2-.2-.7-.4-1.4-.5-3.3-.7-5.4-1.4-6.3-2-1.2-.8-1.8-2-1.8-3.5s.5-2.5,1.6-3.4,2.7-1.4,5-1.4,3.7.3,4.7,1,1.7,1.7,2.1,3.1l-3.9.7c-.2-.6-.5-1.1-.9-1.4s-1.1-.5-2-.5-1.9.2-2.3.5c-.3.2-.5.5-.5.8s.1.5.4.7c.4.3,1.7.7,3.8,1.2s3.7,1.1,4.6,1.8c.9.7,1.3,1.8,1.3,3.1s-.6,2.7-1.8,3.7-3,1.5-5.3,1.5-3.8-.4-5-1.3-2-2-2.4-3.5Z"/>
      <path class="st10" d="M110.1,1020.8v3.3h-2.8v6.3c0,1.3,0,2,0,2.2,0,.2.2.4.4.5s.4.2.7.2.9-.1,1.7-.4l.4,3.2c-1,.4-2,.6-3.3.6s-1.4-.1-2-.4c-.6-.2-1-.6-1.3-1-.3-.4-.5-.9-.6-1.6,0-.5-.1-1.4-.1-2.9v-6.8h-1.9v-3.3h1.9v-3.1l4.1-2.4v5.5h2.8Z"/>
      <path class="st10" d="M122,1031.4l4.1.7c-.5,1.5-1.4,2.6-2.5,3.4-1.1.8-2.6,1.2-4.3,1.2-2.7,0-4.7-.9-6-2.7-1-1.4-1.5-3.2-1.5-5.4s.7-4.6,2-6.1c1.3-1.5,3.1-2.2,5.1-2.2s4.1.8,5.5,2.3,2,3.9,1.9,7h-10.3c0,1.2.4,2.2,1,2.8s1.4,1,2.4,1,1.2-.2,1.6-.5.8-.9,1-1.7ZM122.2,1027.2c0-1.2-.3-2.1-.9-2.7s-1.3-.9-2.1-.9-1.6.3-2.2,1-.9,1.5-.9,2.7h6.2Z"/>
      <path class="st10" d="M133.6,1036.4h-4.1v-15.6h3.8v2.2c.7-1,1.2-1.7,1.8-2.1s1.1-.5,1.8-.5,1.8.3,2.7.8l-1.3,3.6c-.7-.4-1.3-.7-1.9-.7s-1.1.2-1.5.5-.7.9-.9,1.7-.3,2.6-.3,5.2v4.8Z"/>
      <path class="st10" d="M140.5,1030.8l4.1-.4c.1.9.5,1.7,1,2.2.6.5,1.2.8,2,.8s1.6-.3,2.2-1,.9-1.8.9-3.2-.3-2.3-.9-3c-.6-.7-1.4-1-2.3-1s-2.2.5-3.2,1.6l-3.3-.5,2.1-11.2h10.9v3.9h-7.8l-.6,3.6c.9-.5,1.9-.7,2.8-.7,1.8,0,3.4.7,4.6,2s1.9,3.1,1.9,5.2-.5,3.3-1.5,4.7c-1.4,1.9-3.3,2.8-5.8,2.8s-3.6-.5-4.8-1.6-2-2.5-2.2-4.3Z"/>
      <path class="st10" d="M157.1,1019v-3.8h14.1v3c-1.2,1.1-2.3,2.8-3.5,4.9s-2.1,4.4-2.7,6.8c-.6,2.4-.9,4.6-.9,6.5h-4c0-3,.7-6,1.8-9.1s2.7-5.8,4.6-8.3h-9.4Z"/>
      <path class="st10" d="M173.6,1030.7l4-.5c.1,1,.5,1.8,1,2.3s1.2.8,2,.8,1.6-.3,2.1-1,.9-1.5.9-2.6-.3-1.9-.8-2.5-1.2-.9-2-.9-1.2.1-1.9.3l.5-3.4c1.1,0,2-.2,2.5-.7.6-.5.9-1.2.9-2s-.2-1.3-.6-1.7-1-.6-1.7-.6-1.3.2-1.8.7-.8,1.2-.9,2.1l-3.8-.6c.3-1.3.7-2.3,1.2-3.1.5-.8,1.3-1.4,2.2-1.8,1-.4,2-.7,3.2-.7,2,0,3.6.6,4.9,1.9,1,1.1,1.5,2.2,1.5,3.6,0,1.9-1,3.4-3.1,4.5,1.2.3,2.2.9,3,1.8s1.1,2,1.1,3.3c0,1.9-.7,3.5-2.1,4.8s-3.1,2-5.1,2-3.6-.6-4.8-1.7-2-2.6-2.2-4.4Z"/>
      <path class="st10" d="M28.9,1102.4v-15.8h-5.9v-2.1h14.2v2.1h-5.9v15.8h-2.4Z"/>
      <path class="st10" d="M35.8,1095.9c0-2.4.7-4.2,2-5.3,1.1-1,2.5-1.4,4.1-1.4s3.2.6,4.4,1.8c1.1,1.2,1.7,2.8,1.7,4.8s-.3,3-.8,3.9c-.5,1-1.2,1.7-2.2,2.2-1,.5-2,.8-3.1.8-1.8,0-3.3-.6-4.4-1.7-1.1-1.2-1.7-2.8-1.7-5ZM38,1095.9c0,1.7.4,2.9,1.1,3.7.7.8,1.6,1.2,2.7,1.2s2-.4,2.7-1.2c.7-.8,1.1-2.1,1.1-3.8s-.4-2.8-1.1-3.6c-.7-.8-1.6-1.2-2.7-1.2s-2,.4-2.7,1.2c-.7.8-1.1,2.1-1.1,3.7Z"/>
      <path class="st10" d="M50.5,1107.3v-17.9h2v1.7c.5-.7,1-1.2,1.6-1.5.6-.3,1.3-.5,2.2-.5s2.1.3,2.9.9c.8.6,1.5,1.4,1.9,2.4.4,1,.6,2.2.6,3.4s-.2,2.5-.7,3.6c-.5,1.1-1.2,1.9-2.1,2.4-.9.6-1.9.8-2.9.8s-1.4-.2-2-.5c-.6-.3-1.1-.7-1.4-1.2v6.3h-2.2ZM52.5,1096c0,1.7.3,2.9,1,3.7.7.8,1.5,1.2,2.5,1.2s1.8-.4,2.5-1.2c.7-.8,1-2.1,1-3.8s-.3-2.9-1-3.7c-.7-.8-1.5-1.2-2.4-1.2s-1.8.4-2.5,1.3c-.7.9-1.1,2.1-1.1,3.8Z"/>
      <path class="st10" d="M71.3,1107.3v-17.9h2v1.7c.5-.7,1-1.2,1.6-1.5.6-.3,1.3-.5,2.2-.5s2.1.3,2.9.9c.8.6,1.5,1.4,1.9,2.4.4,1,.6,2.2.6,3.4s-.2,2.5-.7,3.6c-.5,1.1-1.2,1.9-2.1,2.4-.9.6-1.9.8-2.9.8s-1.4-.2-2-.5c-.6-.3-1.1-.7-1.4-1.2v6.3h-2.2ZM73.3,1096c0,1.7.3,2.9,1,3.7.7.8,1.5,1.2,2.5,1.2s1.8-.4,2.5-1.2c.7-.8,1-2.1,1-3.8s-.3-2.9-1-3.7c-.7-.8-1.5-1.2-2.4-1.2s-1.8.4-2.5,1.3c-.7.9-1.1,2.1-1.1,3.8Z"/>
      <path class="st10" d="M84.4,1095.9c0-2.4.7-4.2,2-5.3,1.1-1,2.5-1.4,4.1-1.4s3.2.6,4.4,1.8c1.1,1.2,1.7,2.8,1.7,4.8s-.3,3-.8,3.9c-.5,1-1.2,1.7-2.2,2.2-1,.5-2,.8-3.1.8-1.8,0-3.3-.6-4.4-1.7-1.1-1.2-1.7-2.8-1.7-5ZM86.7,1095.9c0,1.7.4,2.9,1.1,3.7.7.8,1.6,1.2,2.7,1.2s2-.4,2.7-1.2c.7-.8,1.1-2.1,1.1-3.8s-.4-2.8-1.1-3.6c-.7-.8-1.6-1.2-2.7-1.2s-2,.4-2.7,1.2c-.7.8-1.1,2.1-1.1,3.7Z"/>
      <path class="st10" d="M99.1,1107.3v-17.9h2v1.7c.5-.7,1-1.2,1.6-1.5.6-.3,1.3-.5,2.2-.5s2.1.3,2.9.9c.8.6,1.5,1.4,1.9,2.4.4,1,.6,2.2.6,3.4s-.2,2.5-.7,3.6c-.5,1.1-1.2,1.9-2.1,2.4-.9.6-1.9.8-2.9.8s-1.4-.2-2-.5c-.6-.3-1.1-.7-1.4-1.2v6.3h-2.2ZM101.1,1096c0,1.7.3,2.9,1,3.7.7.8,1.5,1.2,2.5,1.2s1.8-.4,2.5-1.2c.7-.8,1-2.1,1-3.8s-.3-2.9-1-3.7c-.7-.8-1.5-1.2-2.4-1.2s-1.8.4-2.5,1.3c-.7.9-1.1,2.1-1.1,3.8Z"/>
      <path class="st10" d="M119.1,1098.5l2.2-.3c.1.9.5,1.5,1,2,.6.5,1.3.7,2.3.7s1.8-.2,2.2-.6.7-.9.7-1.4-.2-.9-.6-1.2c-.3-.2-1-.4-2.2-.7-1.6-.4-2.7-.8-3.4-1.1-.6-.3-1.1-.7-1.4-1.2-.3-.5-.5-1.1-.5-1.7s.1-1.1.4-1.6c.3-.5.6-.9,1.1-1.2.3-.3.8-.5,1.4-.6.6-.2,1.2-.3,1.9-.3,1,0,1.9.1,2.7.4.8.3,1.3.7,1.7,1.2.4.5.6,1.2.8,2l-2.1.3c0-.7-.4-1.2-.8-1.6-.5-.4-1.1-.6-2-.6s-1.7.2-2.2.5c-.4.3-.6.7-.6,1.2s0,.5.3.8c.2.2.5.4.8.6.2,0,.9.3,1.9.6,1.6.4,2.6.8,3.3,1,.6.3,1.1.6,1.4,1.2.3.5.5,1.1.5,1.9s-.2,1.4-.6,2.1c-.4.6-1,1.1-1.8,1.5-.8.4-1.7.5-2.7.5-1.7,0-3-.3-3.9-1-.9-.7-1.4-1.7-1.7-3.1Z"/>
      <path class="st10" d="M132.5,1087v-2.5h2.2v2.5h-2.2ZM132.5,1102.4v-13h2.2v13h-2.2Z"/>
      <path class="st10" d="M138,1102.4v-13h2v1.8c1-1.4,2.3-2.1,4.1-2.1s1.5.1,2.2.4c.7.3,1.1.6,1.5,1.1.3.5.6,1,.7,1.6,0,.4.1,1.1.1,2.1v8h-2.2v-7.9c0-.9,0-1.6-.3-2s-.5-.8-.9-1.1c-.4-.3-.9-.4-1.5-.4-.9,0-1.7.3-2.4.9-.7.6-1,1.7-1,3.4v7.1h-2.2Z"/>
      <path class="st10" d="M151.5,1103.4l2.1.3c0,.7.3,1.1.7,1.4.5.4,1.3.6,2.2.6s1.8-.2,2.4-.6c.6-.4.9-1,1.1-1.7.1-.4.2-1.4.2-2.8-1,1.1-2.2,1.7-3.6,1.7s-3.2-.6-4.1-1.9-1.5-2.8-1.5-4.6.2-2.4.7-3.4c.4-1,1.1-1.9,1.9-2.4.9-.6,1.8-.9,3-.9s2.8.6,3.8,1.9v-1.6h2v11.2c0,2-.2,3.4-.6,4.3-.4.8-1.1,1.5-2,2-.9.5-2,.7-3.3.7s-2.8-.3-3.7-1c-1-.7-1.4-1.7-1.4-3.1ZM153.4,1095.6c0,1.7.3,2.9,1,3.7.7.8,1.5,1.2,2.5,1.2s1.9-.4,2.5-1.2,1-2,1-3.7-.4-2.8-1.1-3.6c-.7-.8-1.6-1.2-2.5-1.2s-1.8.4-2.5,1.2c-.7.8-1,2-1,3.5Z"/>
      <path class="st10" d="M174.7,1098.2l2.3.3c-.4,1.3-1,2.4-2,3.1-1,.7-2.2,1.1-3.7,1.1s-3.4-.6-4.5-1.8c-1.1-1.2-1.7-2.8-1.7-4.9s.6-3.9,1.7-5.1,2.6-1.8,4.4-1.8,3.1.6,4.2,1.8c1.1,1.2,1.6,2.8,1.6,5s0,.3,0,.6h-9.7c0,1.4.5,2.5,1.2,3.3.7.8,1.6,1.1,2.7,1.1s1.5-.2,2.1-.6c.6-.4,1-1.1,1.4-2ZM167.5,1094.6h7.2c0-1.1-.4-1.9-.8-2.5-.7-.8-1.6-1.3-2.7-1.3s-1.9.3-2.5,1c-.7.7-1.1,1.6-1.1,2.7Z"/>
      <path class="st10" d="M179.7,1102.4v-13h2v2c.5-.9,1-1.5,1.4-1.8.4-.3.9-.4,1.4-.4.7,0,1.5.2,2.3.7l-.8,2c-.5-.3-1.1-.5-1.6-.5s-.9.1-1.3.4c-.4.3-.7.7-.8,1.2-.2.8-.4,1.6-.4,2.6v6.8h-2.2Z"/>
      <path class="st10" d="M194.1,1098.5l2.2-.3c.1.9.5,1.5,1,2,.6.5,1.3.7,2.3.7s1.8-.2,2.2-.6.7-.9.7-1.4-.2-.9-.6-1.2c-.3-.2-1-.4-2.2-.7-1.6-.4-2.7-.8-3.4-1.1-.6-.3-1.1-.7-1.4-1.2-.3-.5-.5-1.1-.5-1.7s.1-1.1.4-1.6c.3-.5.6-.9,1.1-1.2.3-.3.8-.5,1.4-.6.6-.2,1.2-.3,1.9-.3,1,0,1.9.1,2.7.4.8.3,1.3.7,1.7,1.2.4.5.6,1.2.8,2l-2.1.3c0-.7-.4-1.2-.8-1.6-.5-.4-1.1-.6-2-.6s-1.7.2-2.2.5c-.4.3-.6.7-.6,1.2s0,.5.3.8c.2.2.5.4.8.6.2,0,.9.3,1.9.6,1.6.4,2.6.8,3.3,1,.6.3,1.1.6,1.4,1.2.3.5.5,1.1.5,1.9s-.2,1.4-.6,2.1c-.4.6-1,1.1-1.8,1.5-.8.4-1.7.5-2.7.5-1.7,0-3-.3-3.9-1-.9-.7-1.4-1.7-1.7-3.1Z"/>
      <path class="st10" d="M216,1100.8c-.8.7-1.6,1.2-2.3,1.5-.8.3-1.6.4-2.4.4-1.4,0-2.5-.3-3.3-1-.8-.7-1.1-1.6-1.1-2.7s.1-1.2.4-1.7c.3-.5.7-.9,1.1-1.3.5-.3,1-.6,1.6-.7.4-.1,1.1-.2,2-.3,1.8-.2,3.1-.5,3.9-.8,0-.3,0-.5,0-.6,0-.9-.2-1.5-.6-1.9-.6-.5-1.4-.7-2.5-.7s-1.8.2-2.3.5c-.5.4-.9,1-1.1,1.9l-2.1-.3c.2-.9.5-1.7,1-2.2.4-.6,1.1-1,1.9-1.3.8-.3,1.8-.5,2.9-.5s2,.1,2.7.4c.7.3,1.2.6,1.5,1,.3.4.6.9.7,1.5,0,.4.1,1.1.1,2v2.9c0,2,0,3.3.1,3.9,0,.5.3,1.1.6,1.6h-2.3c-.2-.5-.4-1-.4-1.6ZM215.8,1095.9c-.8.3-2,.6-3.6.8-.9.1-1.5.3-1.9.4-.4.2-.7.4-.9.7-.2.3-.3.7-.3,1,0,.6.2,1.1.7,1.5.4.4,1.1.6,1.9.6s1.6-.2,2.3-.6,1.1-.9,1.5-1.5c.2-.5.4-1.2.4-2.2v-.8Z"/>
      <path class="st10" d="M221.3,1107.4l-.2-2.1c.5.1.9.2,1.3.2s.9,0,1.2-.2.5-.4.7-.7c.1-.2.4-.8.7-1.6,0-.1.1-.3.2-.5l-4.9-13h2.4l2.7,7.5c.3,1,.7,2,.9,3,.3-1,.6-2,.9-3l2.8-7.6h2.2l-4.9,13.2c-.5,1.4-.9,2.4-1.2,2.9-.4.7-.8,1.3-1.3,1.6-.5.3-1.1.5-1.8.5s-.9,0-1.4-.3Z"/>
      <path class="st10" d="M233.1,1098.5l2.2-.3c.1.9.5,1.5,1,2,.6.5,1.3.7,2.3.7s1.8-.2,2.2-.6.7-.9.7-1.4-.2-.9-.6-1.2c-.3-.2-1-.4-2.2-.7-1.6-.4-2.7-.8-3.4-1.1-.6-.3-1.1-.7-1.4-1.2-.3-.5-.5-1.1-.5-1.7s.1-1.1.4-1.6c.3-.5.6-.9,1.1-1.2.3-.3.8-.5,1.4-.6.6-.2,1.2-.3,1.9-.3,1,0,1.9.1,2.7.4.8.3,1.3.7,1.7,1.2.4.5.6,1.2.8,2l-2.1.3c0-.7-.4-1.2-.8-1.6-.5-.4-1.1-.6-2-.6s-1.7.2-2.2.5c-.4.3-.6.7-.6,1.2s0,.5.3.8c.2.2.5.4.8.6.2,0,.9.3,1.9.6,1.6.4,2.6.8,3.3,1,.6.3,1.1.6,1.4,1.2.3.5.5,1.1.5,1.9s-.2,1.4-.6,2.1c-.4.6-1,1.1-1.8,1.5-.8.4-1.7.5-2.7.5-1.7,0-3-.3-3.9-1-.9-.7-1.4-1.7-1.7-3.1Z"/>
      <path class="st10" d="M252.5,1098.5l2.2-.3c.1.9.5,1.5,1,2,.6.5,1.3.7,2.3.7s1.8-.2,2.2-.6.7-.9.7-1.4-.2-.9-.6-1.2c-.3-.2-1-.4-2.2-.7-1.6-.4-2.7-.8-3.4-1.1-.6-.3-1.1-.7-1.4-1.2-.3-.5-.5-1.1-.5-1.7s.1-1.1.4-1.6c.3-.5.6-.9,1.1-1.2.3-.3.8-.5,1.4-.6.6-.2,1.2-.3,1.9-.3,1,0,1.9.1,2.7.4.8.3,1.3.7,1.7,1.2.4.5.6,1.2.8,2l-2.1.3c0-.7-.4-1.2-.8-1.6-.5-.4-1.1-.6-2-.6s-1.7.2-2.2.5c-.4.3-.6.7-.6,1.2s0,.5.3.8c.2.2.5.4.8.6.2,0,.9.3,1.9.6,1.6.4,2.6.8,3.3,1,.6.3,1.1.6,1.4,1.2.3.5.5,1.1.5,1.9s-.2,1.4-.6,2.1c-.4.6-1,1.1-1.8,1.5-.8.4-1.7.5-2.7.5-1.7,0-3-.3-3.9-1-.9-.7-1.4-1.7-1.7-3.1Z"/>
      <path class="st10" d="M265.1,1095.9c0-2.4.7-4.2,2-5.3,1.1-1,2.5-1.4,4.1-1.4s3.2.6,4.4,1.8,1.7,2.8,1.7,4.8-.2,3-.8,3.9c-.5,1-1.2,1.7-2.2,2.2-1,.5-2,.8-3.1.8-1.8,0-3.3-.6-4.4-1.7-1.1-1.2-1.7-2.8-1.7-5ZM267.3,1095.9c0,1.7.4,2.9,1.1,3.7.7.8,1.6,1.2,2.7,1.2s2-.4,2.7-1.2c.7-.8,1.1-2.1,1.1-3.8s-.4-2.8-1.1-3.6c-.7-.8-1.6-1.2-2.7-1.2s-2,.4-2.7,1.2c-.7.8-1.1,2.1-1.1,3.7Z"/>
      <path class="st10" d="M279.8,1102.4v-13h2v1.8c.4-.6.9-1.1,1.6-1.5.7-.4,1.4-.6,2.3-.6s1.7.2,2.4.6c.6.4,1,1,1.3,1.7,1-1.5,2.4-2.3,4-2.3s2.3.4,3,1.1c.7.7,1,1.8,1,3.3v8.9h-2.2v-8.2c0-.9,0-1.5-.2-1.9-.1-.4-.4-.7-.8-.9-.4-.2-.8-.4-1.3-.4-.9,0-1.7.3-2.3.9-.6.6-.9,1.6-.9,2.9v7.5h-2.2v-8.4c0-1-.2-1.7-.5-2.2-.4-.5-.9-.7-1.8-.7s-1.2.2-1.7.5c-.5.3-.9.8-1.1,1.4-.2.6-.4,1.5-.4,2.7v6.7h-2.2Z"/>
      <path class="st10" d="M309.5,1098.2l2.3.3c-.4,1.3-1,2.4-2,3.1s-2.2,1.1-3.7,1.1-3.4-.6-4.5-1.8c-1.1-1.2-1.7-2.8-1.7-4.9s.6-3.9,1.7-5.1,2.6-1.8,4.4-1.8,3.1.6,4.2,1.8c1.1,1.2,1.6,2.8,1.6,5s0,.3,0,.6h-9.7c0,1.4.5,2.5,1.2,3.3.7.8,1.6,1.1,2.7,1.1s1.5-.2,2.1-.6c.6-.4,1-1.1,1.4-2ZM302.3,1094.6h7.2c0-1.1-.4-1.9-.8-2.5-.7-.8-1.6-1.3-2.7-1.3s-1.9.3-2.5,1c-.7.7-1.1,1.6-1.1,2.7Z"/>
      <path class="st10" d="M319.3,1100.4l.3,1.9c-.6.1-1.2.2-1.7.2-.8,0-1.4-.1-1.9-.4-.4-.3-.8-.6-.9-1-.2-.4-.3-1.3-.3-2.6v-7.5h-1.6v-1.7h1.6v-3.2l2.2-1.3v4.5h2.2v1.7h-2.2v7.6c0,.6,0,1,.1,1.2,0,.2.2.3.4.4.2.1.4.2.8.2s.6,0,1,0Z"/>
      <path class="st10" d="M321.5,1102.4v-17.9h2.2v6.4c1-1.2,2.3-1.8,3.9-1.8s1.8.2,2.5.6c.7.4,1.2.9,1.5,1.6.3.7.5,1.6.5,2.9v8.2h-2.2v-8.2c0-1.1-.2-1.9-.7-2.4-.5-.5-1.1-.8-2-.8s-1.3.2-1.8.5c-.6.3-1,.8-1.2,1.4-.2.6-.4,1.4-.4,2.4v7.1h-2.2Z"/>
      <path class="st10" d="M335.4,1087v-2.5h2.2v2.5h-2.2ZM335.4,1102.4v-13h2.2v13h-2.2Z"/>
      <path class="st10" d="M340.9,1102.4v-13h2v1.8c1-1.4,2.3-2.1,4.1-2.1s1.5.1,2.2.4c.7.3,1.1.6,1.5,1.1.3.5.6,1,.7,1.6,0,.4.1,1.1.1,2.1v8h-2.2v-7.9c0-.9,0-1.6-.3-2-.2-.4-.5-.8-.9-1.1-.4-.3-.9-.4-1.5-.4-.9,0-1.7.3-2.4.9-.7.6-1,1.7-1,3.4v7.1h-2.2Z"/>
      <path class="st10" d="M354.4,1103.4l2.1.3c0,.7.3,1.1.7,1.4.5.4,1.3.6,2.2.6s1.8-.2,2.4-.6c.6-.4.9-1,1.1-1.7.1-.4.2-1.4.2-2.8-1,1.1-2.2,1.7-3.6,1.7s-3.2-.6-4.1-1.9-1.5-2.8-1.5-4.6.2-2.4.7-3.4c.4-1,1.1-1.9,1.9-2.4.9-.6,1.8-.9,3-.9s2.8.6,3.8,1.9v-1.6h2v11.2c0,2-.2,3.4-.6,4.3-.4.8-1.1,1.5-2,2s-2,.7-3.3.7-2.8-.3-3.7-1c-1-.7-1.4-1.7-1.4-3.1ZM356.2,1095.6c0,1.7.3,2.9,1,3.7s1.5,1.2,2.5,1.2,1.9-.4,2.5-1.2,1-2,1-3.7-.4-2.8-1.1-3.6-1.6-1.2-2.5-1.2-1.8.4-2.5,1.2c-.7.8-1,2-1,3.5Z"/>
      <path class="st10" d="M384.2,1102.4v-1.9c-1,1.5-2.4,2.2-4.1,2.2s-1.5-.1-2.1-.4c-.7-.3-1.2-.7-1.5-1.1-.3-.4-.5-1-.7-1.6,0-.4-.1-1.1-.1-2.1v-8h2.2v7.2c0,1.1,0,1.9.1,2.3.1.6.4,1,.9,1.4.4.3,1,.5,1.7.5s1.3-.2,1.9-.5,1-.8,1.2-1.4c.2-.6.4-1.4.4-2.5v-6.9h2.2v13h-2Z"/>
      <path class="st10" d="M389.6,1102.4v-13h2v1.8c1-1.4,2.3-2.1,4.1-2.1s1.5.1,2.2.4c.7.3,1.1.6,1.5,1.1.3.5.6,1,.7,1.6,0,.4.1,1.1.1,2.1v8h-2.2v-7.9c0-.9,0-1.6-.3-2-.2-.4-.5-.8-.9-1.1-.4-.3-.9-.4-1.5-.4-.9,0-1.7.3-2.4.9-.7.6-1,1.7-1,3.4v7.1h-2.2Z"/>
      <path class="st10" d="M405.5,1102.4h-2v-17.9h2.2v6.4c.9-1.2,2.1-1.7,3.6-1.7s1.6.2,2.3.5c.7.3,1.3.8,1.8,1.4.5.6.8,1.3,1.1,2.1.3.8.4,1.7.4,2.6,0,2.2-.5,3.9-1.6,5.2-1.1,1.2-2.4,1.8-4,1.8s-2.7-.6-3.6-1.9v1.6ZM405.5,1095.8c0,1.6.2,2.7.6,3.4.7,1.1,1.6,1.7,2.8,1.7s1.8-.4,2.5-1.3c.7-.8,1.1-2.1,1.1-3.7s-.3-2.9-1-3.7c-.7-.8-1.5-1.2-2.4-1.2s-1.8.4-2.5,1.3c-.7.8-1,2-1,3.6Z"/>
      <path class="st10" d="M426.3,1098.2l2.3.3c-.4,1.3-1,2.4-2,3.1-1,.7-2.2,1.1-3.7,1.1s-3.4-.6-4.5-1.8c-1.1-1.2-1.7-2.8-1.7-4.9s.6-3.9,1.7-5.1,2.6-1.8,4.4-1.8,3.1.6,4.2,1.8c1.1,1.2,1.6,2.8,1.6,5s0,.3,0,.6h-9.7c0,1.4.5,2.5,1.2,3.3.7.8,1.6,1.1,2.7,1.1s1.5-.2,2.1-.6,1-1.1,1.4-2ZM419,1094.6h7.2c0-1.1-.4-1.9-.8-2.5-.7-.8-1.6-1.3-2.7-1.3s-1.9.3-2.5,1c-.7.7-1.1,1.6-1.1,2.7Z"/>
      <path class="st10" d="M431.2,1102.4v-17.9h2.2v17.9h-2.2Z"/>
      <path class="st10" d="M436.9,1087v-2.5h2.2v2.5h-2.2ZM436.9,1102.4v-13h2.2v13h-2.2Z"/>
      <path class="st10" d="M451.3,1098.2l2.3.3c-.4,1.3-1,2.4-2,3.1-1,.7-2.2,1.1-3.7,1.1s-3.4-.6-4.5-1.8c-1.1-1.2-1.7-2.8-1.7-4.9s.6-3.9,1.7-5.1,2.6-1.8,4.4-1.8,3.1.6,4.2,1.8c1.1,1.2,1.6,2.8,1.6,5s0,.3,0,.6h-9.7c0,1.4.5,2.5,1.2,3.3.7.8,1.6,1.1,2.7,1.1s1.5-.2,2.1-.6,1-1.1,1.4-2ZM444.1,1094.6h7.2c0-1.1-.4-1.9-.8-2.5-.7-.8-1.6-1.3-2.7-1.3s-1.9.3-2.5,1c-.7.7-1.1,1.6-1.1,2.7Z"/>
      <path class="st10" d="M459.9,1102.4l-4.9-13h2.3l2.8,7.8c.3.8.6,1.7.8,2.6.2-.7.5-1.5.8-2.5l2.9-7.9h2.3l-4.9,13h-2.1Z"/>
      <path class="st10" d="M477.3,1100.8c-.8.7-1.6,1.2-2.3,1.5-.8.3-1.6.4-2.4.4-1.4,0-2.5-.3-3.3-1-.8-.7-1.1-1.6-1.1-2.7s.1-1.2.4-1.7c.3-.5.7-.9,1.1-1.3.5-.3,1-.6,1.6-.7.4-.1,1.1-.2,2-.3,1.8-.2,3.1-.5,3.9-.8,0-.3,0-.5,0-.6,0-.9-.2-1.5-.6-1.9-.6-.5-1.4-.7-2.5-.7s-1.8.2-2.3.5-.9,1-1.1,1.9l-2.1-.3c.2-.9.5-1.7,1-2.2.4-.6,1.1-1,1.9-1.3.8-.3,1.8-.5,2.9-.5s2,.1,2.7.4c.7.3,1.2.6,1.5,1,.3.4.6.9.7,1.5,0,.4.1,1.1.1,2v2.9c0,2,0,3.3.1,3.9,0,.5.3,1.1.6,1.6h-2.3c-.2-.5-.4-1-.4-1.6ZM477.1,1095.9c-.8.3-2,.6-3.6.8-.9.1-1.5.3-1.9.4-.4.2-.7.4-.9.7s-.3.7-.3,1c0,.6.2,1.1.7,1.5s1.1.6,1.9.6,1.6-.2,2.3-.6c.7-.4,1.1-.9,1.5-1.5.2-.5.4-1.2.4-2.2v-.8Z"/>
      <path class="st10" d="M484.7,1102.4h-2v-17.9h2.2v6.4c.9-1.2,2.1-1.7,3.6-1.7s1.6.2,2.3.5c.7.3,1.3.8,1.8,1.4.5.6.8,1.3,1.1,2.1.3.8.4,1.7.4,2.6,0,2.2-.5,3.9-1.6,5.2-1.1,1.2-2.4,1.8-4,1.8s-2.7-.6-3.6-1.9v1.6ZM484.7,1095.8c0,1.6.2,2.7.6,3.4.7,1.1,1.6,1.7,2.8,1.7s1.8-.4,2.5-1.3c.7-.8,1.1-2.1,1.1-3.7s-.3-2.9-1-3.7c-.7-.8-1.5-1.2-2.4-1.2s-1.8.4-2.5,1.3c-.7.8-1,2-1,3.6Z"/>
      <path class="st10" d="M496.6,1102.4v-17.9h2.2v17.9h-2.2Z"/>
      <path class="st10" d="M511,1098.2l2.3.3c-.4,1.3-1,2.4-2,3.1-1,.7-2.2,1.1-3.7,1.1s-3.4-.6-4.5-1.8c-1.1-1.2-1.7-2.8-1.7-4.9s.6-3.9,1.7-5.1,2.6-1.8,4.4-1.8,3.1.6,4.2,1.8c1.1,1.2,1.6,2.8,1.6,5s0,.3,0,.6h-9.7c0,1.4.5,2.5,1.2,3.3.7.8,1.6,1.1,2.7,1.1s1.5-.2,2.1-.6,1-1.1,1.4-2ZM503.8,1094.6h7.2c0-1.1-.4-1.9-.8-2.5-.7-.8-1.6-1.3-2.7-1.3s-1.9.3-2.5,1c-.7.7-1.1,1.6-1.1,2.7Z"/>
      <path class="st10" d="M23.7,1132.7l1.1-5.2h-2.1v-1.8h2.4l.9-4.4h-3.3v-1.8h3.7l1.1-5.2h1.8l-1.1,5.2h3.8l1.1-5.2h1.8l-1.1,5.2h2.1v1.8h-2.5l-.9,4.4h3.4v1.8h-3.8l-1.1,5.2h-1.8l1-5.2h-3.8l-1.1,5.2h-1.8ZM27,1125.6h3.8l.9-4.4h-3.8l-.9,4.4Z"/>
      <path class="st10" d="M38,1137.3v-17.9h2v1.7c.5-.7,1-1.2,1.6-1.5.6-.3,1.3-.5,2.2-.5s2.1.3,2.9.9c.8.6,1.5,1.4,1.9,2.4.4,1,.6,2.2.6,3.4s-.2,2.5-.7,3.6c-.5,1.1-1.2,1.9-2.1,2.4-.9.6-1.9.8-2.9.8s-1.4-.2-2-.5c-.6-.3-1.1-.7-1.4-1.2v6.3h-2.2ZM40,1126c0,1.7.3,2.9,1,3.7.7.8,1.5,1.2,2.5,1.2s1.8-.4,2.5-1.2c.7-.8,1-2.1,1-3.8s-.3-2.9-1-3.7c-.7-.8-1.5-1.2-2.4-1.2s-1.8.4-2.5,1.3c-.7.9-1.1,2.1-1.1,3.8Z"/>
      <path class="st10" d="M51.1,1125.9c0-2.4.7-4.2,2-5.3,1.1-1,2.5-1.4,4.1-1.4s3.2.6,4.4,1.8c1.1,1.2,1.7,2.8,1.7,4.8s-.3,3-.8,3.9c-.5,1-1.2,1.7-2.2,2.2-1,.5-2,.8-3.1.8-1.8,0-3.3-.6-4.4-1.7-1.1-1.2-1.7-2.8-1.7-5ZM53.3,1125.9c0,1.7.4,2.9,1.1,3.7.7.8,1.6,1.2,2.7,1.2s2-.4,2.7-1.2c.7-.8,1.1-2.1,1.1-3.8s-.4-2.8-1.1-3.6c-.7-.8-1.6-1.2-2.7-1.2s-2,.4-2.7,1.2c-.7.8-1.1,2.1-1.1,3.7Z"/>
      <path class="st10" d="M65.8,1137.3v-17.9h2v1.7c.5-.7,1-1.2,1.6-1.5.6-.3,1.3-.5,2.2-.5s2.1.3,2.9.9c.8.6,1.5,1.4,1.9,2.4.4,1,.6,2.2.6,3.4s-.2,2.5-.7,3.6c-.5,1.1-1.2,1.9-2.1,2.4-.9.6-1.9.8-2.9.8s-1.4-.2-2-.5c-.6-.3-1.1-.7-1.4-1.2v6.3h-2.2ZM67.8,1126c0,1.7.3,2.9,1,3.7.7.8,1.5,1.2,2.5,1.2s1.8-.4,2.5-1.2c.7-.8,1-2.1,1-3.8s-.3-2.9-1-3.7c-.7-.8-1.5-1.2-2.4-1.2s-1.8.4-2.5,1.3c-.7.9-1.1,2.1-1.1,3.8Z"/>
      <path class="st10" d="M79.7,1132.4v-13h2v1.8c.4-.6.9-1.1,1.6-1.5.7-.4,1.4-.6,2.3-.6s1.7.2,2.4.6c.6.4,1,1,1.3,1.7,1-1.5,2.4-2.3,4-2.3s2.3.4,3,1.1c.7.7,1,1.8,1,3.3v8.9h-2.2v-8.2c0-.9,0-1.5-.2-1.9-.1-.4-.4-.7-.8-.9-.4-.2-.8-.4-1.3-.4-.9,0-1.7.3-2.3.9-.6.6-.9,1.6-.9,2.9v7.5h-2.2v-8.4c0-1-.2-1.7-.5-2.2-.4-.5-.9-.7-1.8-.7s-1.2.2-1.7.5c-.5.3-.9.8-1.1,1.4-.2.6-.4,1.5-.4,2.7v6.7h-2.2Z"/>
      <path class="st10" d="M109,1132.4v-1.9c-1,1.5-2.4,2.2-4.1,2.2s-1.5-.1-2.1-.4c-.7-.3-1.2-.7-1.5-1.1-.3-.4-.5-1-.7-1.6,0-.4-.1-1.1-.1-2.1v-8h2.2v7.2c0,1.1,0,1.9.1,2.3.1.6.4,1,.9,1.4.4.3,1,.5,1.7.5s1.3-.2,1.9-.5c.6-.3,1-.8,1.2-1.4.2-.6.4-1.4.4-2.5v-6.9h2.2v13h-2Z"/>
      <path class="st10" d="M113.5,1128.5l2.2-.3c.1.9.5,1.5,1,2,.6.5,1.3.7,2.3.7s1.8-.2,2.2-.6.7-.9.7-1.4-.2-.9-.6-1.2c-.3-.2-1-.4-2.2-.7-1.6-.4-2.7-.8-3.4-1.1-.6-.3-1.1-.7-1.4-1.2-.3-.5-.5-1.1-.5-1.7s.1-1.1.4-1.6c.3-.5.6-.9,1.1-1.2.3-.3.8-.5,1.4-.6.6-.2,1.2-.3,1.9-.3,1,0,1.9.1,2.7.4.8.3,1.3.7,1.7,1.2.4.5.6,1.2.8,2l-2.1.3c0-.7-.4-1.2-.8-1.6-.5-.4-1.1-.6-2-.6s-1.7.2-2.2.5c-.4.3-.6.7-.6,1.2s0,.5.3.8c.2.2.5.4.8.6.2,0,.9.3,1.9.6,1.6.4,2.6.8,3.3,1,.6.3,1.1.6,1.4,1.2.3.5.5,1.1.5,1.9s-.2,1.4-.6,2.1c-.4.6-1,1.1-1.8,1.5-.8.4-1.7.5-2.7.5-1.7,0-3-.3-3.9-1-.9-.7-1.4-1.7-1.7-3.1Z"/>
      <path class="st10" d="M126.9,1117v-2.5h2.2v2.5h-2.2ZM126.9,1132.4v-13h2.2v13h-2.2Z"/>
      <path class="st10" d="M140.9,1127.6l2.2.3c-.2,1.5-.8,2.7-1.8,3.5-1,.8-2.2,1.3-3.6,1.3s-3.2-.6-4.3-1.7c-1.1-1.2-1.6-2.8-1.6-5s.2-2.6.7-3.7,1.2-1.8,2.1-2.4c.9-.5,2-.8,3.1-.8s2.6.4,3.5,1.1c.9.7,1.5,1.7,1.7,3l-2.1.3c-.2-.9-.6-1.5-1.1-2-.5-.4-1.1-.7-1.9-.7-1.1,0-2,.4-2.7,1.2-.7.8-1,2-1,3.8s.3,3,1,3.8c.7.8,1.5,1.2,2.6,1.2s1.6-.3,2.2-.8c.6-.5.9-1.3,1.1-2.4Z"/>
      <path class="st10" d="M151.5,1132.7l1.1-5.2h-2.1v-1.8h2.4l.9-4.4h-3.3v-1.8h3.7l1.1-5.2h1.8l-1.1,5.2h3.8l1.1-5.2h1.8l-1.1,5.2h2.1v1.8h-2.5l-.9,4.4h3.4v1.8h-3.8l-1.1,5.2h-1.8l1-5.2h-3.8l-1.1,5.2h-1.8ZM154.8,1125.6h3.8l.9-4.4h-3.8l-.9,4.4Z"/>
      <path class="st10" d="M166.4,1132.4v-11.3h-1.9v-1.7h1.9v-1.4c0-.9,0-1.5.2-1.9.2-.6.6-1,1.1-1.4.5-.4,1.3-.5,2.2-.5s1.3,0,2.1.2l-.3,1.9c-.5,0-.9-.1-1.3-.1-.7,0-1.1.1-1.4.4-.3.3-.4.8-.4,1.6v1.2h2.5v1.7h-2.5v11.3h-2.2Z"/>
      <path class="st10" d="M172.7,1137.4l-.2-2.1c.5.1.9.2,1.3.2s.9,0,1.2-.2.5-.4.7-.7c.1-.2.4-.8.7-1.6,0-.1.1-.3.2-.5l-4.9-13h2.4l2.7,7.5c.3,1,.7,2,.9,3,.3-1,.6-2,.9-3l2.8-7.6h2.2l-4.9,13.2c-.5,1.4-.9,2.4-1.2,2.9-.4.7-.8,1.3-1.3,1.6-.5.3-1.1.5-1.8.5s-.9,0-1.4-.3Z"/>
      <path class="st10" d="M185.3,1137.3v-17.9h2v1.7c.5-.7,1-1.2,1.6-1.5.6-.3,1.3-.5,2.2-.5s2.1.3,2.9.9c.8.6,1.5,1.4,1.9,2.4.4,1,.6,2.2.6,3.4s-.2,2.5-.7,3.6c-.5,1.1-1.2,1.9-2.1,2.4-.9.6-1.9.8-2.9.8s-1.4-.2-2-.5c-.6-.3-1.1-.7-1.4-1.2v6.3h-2.2ZM187.3,1126c0,1.7.3,2.9,1,3.7.7.8,1.5,1.2,2.5,1.2s1.8-.4,2.5-1.2c.7-.8,1-2.1,1-3.8s-.3-2.9-1-3.7c-.7-.8-1.5-1.2-2.4-1.2s-1.8.4-2.5,1.3c-.7.9-1.1,2.1-1.1,3.8Z"/>
      <path class="st10" d="M205.7,1132.7l1.1-5.2h-2.1v-1.8h2.4l.9-4.4h-3.3v-1.8h3.7l1.1-5.2h1.8l-1.1,5.2h3.8l1.1-5.2h1.8l-1.1,5.2h2.1v1.8h-2.5l-.9,4.4h3.4v1.8h-3.8l-1.1,5.2h-1.8l1-5.2h-3.8l-1.1,5.2h-1.8ZM209,1125.6h3.8l.9-4.4h-3.8l-.9,4.4Z"/>
      <path class="st10" d="M228.9,1128.2l2.3.3c-.4,1.3-1,2.4-2,3.1-1,.7-2.2,1.1-3.7,1.1s-3.4-.6-4.5-1.8c-1.1-1.2-1.7-2.8-1.7-4.9s.6-3.9,1.7-5.1,2.6-1.8,4.4-1.8,3.1.6,4.2,1.8c1.1,1.2,1.6,2.8,1.6,5s0,.3,0,.6h-9.7c0,1.4.5,2.5,1.2,3.3.7.8,1.6,1.1,2.7,1.1s1.5-.2,2.1-.6c.6-.4,1-1.1,1.4-2ZM221.7,1124.6h7.2c0-1.1-.4-1.9-.8-2.5-.7-.8-1.6-1.3-2.7-1.3s-1.9.3-2.5,1c-.7.7-1.1,1.6-1.1,2.7Z"/>
      <path class="st10" d="M232.5,1132.4l4.7-6.7-4.4-6.2h2.7l2,3c.4.6.7,1.1.9,1.5.4-.5.7-1,1-1.4l2.2-3.1h2.6l-4.5,6.1,4.8,6.9h-2.7l-2.7-4-.7-1.1-3.4,5.1h-2.7Z"/>
      <path class="st10" d="M246.4,1137.3v-17.9h2v1.7c.5-.7,1-1.2,1.6-1.5.6-.3,1.3-.5,2.2-.5s2.1.3,2.9.9c.8.6,1.5,1.4,1.9,2.4.4,1,.6,2.2.6,3.4s-.2,2.5-.7,3.6c-.5,1.1-1.2,1.9-2.1,2.4-.9.6-1.9.8-2.9.8s-1.4-.2-2-.5c-.6-.3-1.1-.7-1.4-1.2v6.3h-2.2ZM248.4,1126c0,1.7.3,2.9,1,3.7.7.8,1.5,1.2,2.5,1.2s1.8-.4,2.5-1.2c.7-.8,1-2.1,1-3.8s-.3-2.9-1-3.7c-.7-.8-1.5-1.2-2.4-1.2s-1.8.4-2.5,1.3c-.7.9-1.1,2.1-1.1,3.8Z"/>
      <path class="st10" d="M260.3,1132.4v-17.9h2.2v17.9h-2.2Z"/>
      <path class="st10" d="M265.1,1125.9c0-2.4.7-4.2,2-5.3,1.1-1,2.5-1.4,4.1-1.4s3.2.6,4.4,1.8,1.7,2.8,1.7,4.8-.3,3-.8,3.9c-.5,1-1.2,1.7-2.2,2.2-1,.5-2,.8-3.1.8-1.8,0-3.3-.6-4.4-1.7-1.1-1.2-1.7-2.8-1.7-5ZM267.3,1125.9c0,1.7.4,2.9,1.1,3.7.7.8,1.6,1.2,2.7,1.2s2-.4,2.7-1.2,1.1-2.1,1.1-3.8-.4-2.8-1.1-3.6c-.7-.8-1.6-1.2-2.7-1.2s-2,.4-2.7,1.2c-.7.8-1.1,2.1-1.1,3.7Z"/>
      <path class="st10" d="M279.8,1132.4v-13h2v2c.5-.9,1-1.5,1.4-1.8.4-.3.9-.4,1.4-.4.7,0,1.5.2,2.3.7l-.8,2c-.5-.3-1.1-.5-1.6-.5s-.9.1-1.3.4-.7.7-.8,1.2c-.2.8-.4,1.6-.4,2.6v6.8h-2.2Z"/>
      <path class="st10" d="M297,1128.2l2.3.3c-.4,1.3-1,2.4-2,3.1-1,.7-2.2,1.1-3.7,1.1s-3.4-.6-4.5-1.8c-1.1-1.2-1.7-2.8-1.7-4.9s.6-3.9,1.7-5.1,2.6-1.8,4.4-1.8,3.1.6,4.2,1.8c1.1,1.2,1.6,2.8,1.6,5s0,.3,0,.6h-9.7c0,1.4.5,2.5,1.2,3.3.7.8,1.6,1.1,2.7,1.1s1.5-.2,2.1-.6,1-1.1,1.4-2ZM289.8,1124.6h7.2c0-1.1-.4-1.9-.8-2.5-.7-.8-1.6-1.3-2.7-1.3s-1.9.3-2.5,1c-.7.7-1.1,1.6-1.1,2.7Z"/>
      <path class="st10" d="M308.6,1132.7l1.1-5.2h-2.1v-1.8h2.4l.9-4.4h-3.3v-1.8h3.7l1.1-5.2h1.8l-1.1,5.2h3.8l1.1-5.2h1.8l-1.1,5.2h2.1v1.8h-2.5l-.9,4.4h3.4v1.8h-3.8l-1.1,5.2h-1.8l1.1-5.2h-3.8l-1.1,5.2h-1.8ZM311.8,1125.6h3.8l.9-4.4h-3.8l-.9,4.4Z"/>
      <path class="st10" d="M323.4,1132.4v-11.3h-1.9v-1.7h1.9v-1.4c0-.9,0-1.5.2-1.9.2-.6.6-1,1.1-1.4.5-.4,1.3-.5,2.2-.5s1.3,0,2.1.2l-.3,1.9c-.5,0-.9-.1-1.3-.1-.7,0-1.1.1-1.4.4-.3.3-.4.8-.4,1.6v1.2h2.5v1.7h-2.5v11.3h-2.2Z"/>
      <path class="st10" d="M329,1125.9c0-2.4.7-4.2,2-5.3,1.1-1,2.5-1.4,4.1-1.4s3.2.6,4.4,1.8,1.7,2.8,1.7,4.8-.2,3-.8,3.9c-.5,1-1.2,1.7-2.2,2.2-1,.5-2,.8-3.1.8-1.8,0-3.3-.6-4.4-1.7-1.1-1.2-1.7-2.8-1.7-5ZM331.3,1125.9c0,1.7.4,2.9,1.1,3.7.7.8,1.6,1.2,2.7,1.2s2-.4,2.7-1.2c.7-.8,1.1-2.1,1.1-3.8s-.4-2.8-1.1-3.6c-.7-.8-1.6-1.2-2.7-1.2s-2,.4-2.7,1.2-1.1,2.1-1.1,3.7Z"/>
      <path class="st10" d="M343.7,1132.4v-13h2v2c.5-.9,1-1.5,1.4-1.8s.9-.4,1.4-.4c.7,0,1.5.2,2.3.7l-.8,2c-.5-.3-1.1-.5-1.6-.5s-.9.1-1.3.4-.7.7-.8,1.2c-.2.8-.4,1.6-.4,2.6v6.8h-2.2Z"/>
      <path class="st10" d="M352,1137.4l-.2-2.1c.5.1.9.2,1.3.2s.9,0,1.2-.2.5-.4.7-.7c.1-.2.4-.8.7-1.6,0-.1.1-.3.2-.5l-4.9-13h2.4l2.7,7.5c.3,1,.7,2,.9,3,.3-1,.6-2,.9-3l2.8-7.6h2.2l-4.9,13.2c-.5,1.4-.9,2.4-1.2,2.9-.4.7-.8,1.3-1.3,1.6-.5.3-1.1.5-1.8.5s-.9,0-1.4-.3Z"/>
      <path class="st10" d="M363.7,1125.9c0-2.4.7-4.2,2-5.3,1.1-1,2.5-1.4,4.1-1.4s3.2.6,4.4,1.8,1.7,2.8,1.7,4.8-.2,3-.8,3.9c-.5,1-1.2,1.7-2.2,2.2-1,.5-2,.8-3.1.8-1.8,0-3.3-.6-4.4-1.7-1.1-1.2-1.7-2.8-1.7-5ZM366,1125.9c0,1.7.4,2.9,1.1,3.7.7.8,1.6,1.2,2.7,1.2s2-.4,2.7-1.2c.7-.8,1.1-2.1,1.1-3.8s-.4-2.8-1.1-3.6c-.7-.8-1.6-1.2-2.7-1.2s-2,.4-2.7,1.2-1.1,2.1-1.1,3.7Z"/>
      <path class="st10" d="M386.9,1132.4v-1.9c-1,1.5-2.4,2.2-4.1,2.2s-1.5-.1-2.1-.4c-.7-.3-1.2-.7-1.5-1.1-.3-.4-.5-1-.7-1.6,0-.4-.1-1.1-.1-2.1v-8h2.2v7.2c0,1.1,0,1.9.1,2.3.1.6.4,1,.9,1.4.4.3,1,.5,1.7.5s1.3-.2,1.9-.5,1-.8,1.2-1.4c.2-.6.4-1.4.4-2.5v-6.9h2.2v13h-2Z"/>
      <path class="st10" d="M392.4,1137.3v-17.9h2v1.7c.5-.7,1-1.2,1.6-1.5.6-.3,1.3-.5,2.2-.5s2.1.3,2.9.9c.8.6,1.5,1.4,1.9,2.4.4,1,.6,2.2.6,3.4s-.2,2.5-.7,3.6c-.5,1.1-1.2,1.9-2.1,2.4-.9.6-1.9.8-2.9.8s-1.4-.2-2-.5-1.1-.7-1.4-1.2v6.3h-2.2ZM394.3,1126c0,1.7.3,2.9,1,3.7s1.5,1.2,2.5,1.2,1.8-.4,2.5-1.2c.7-.8,1-2.1,1-3.8s-.3-2.9-1-3.7-1.5-1.2-2.4-1.2-1.8.4-2.5,1.3c-.7.9-1.1,2.1-1.1,3.8Z"/>
      <path class="st10" d="M414.7,1130.8c-.8.7-1.6,1.2-2.3,1.5-.8.3-1.6.4-2.4.4-1.4,0-2.5-.3-3.3-1-.8-.7-1.1-1.6-1.1-2.7s.1-1.2.4-1.7c.3-.5.7-.9,1.1-1.3.5-.3,1-.6,1.6-.7.4-.1,1.1-.2,2-.3,1.8-.2,3.1-.5,3.9-.8,0-.3,0-.5,0-.6,0-.9-.2-1.5-.6-1.9-.6-.5-1.4-.7-2.5-.7s-1.8.2-2.3.5-.9,1-1.1,1.9l-2.1-.3c.2-.9.5-1.7,1-2.2.4-.6,1.1-1,1.9-1.3.8-.3,1.8-.5,2.9-.5s2,.1,2.7.4c.7.3,1.2.6,1.5,1,.3.4.6.9.7,1.5,0,.4.1,1.1.1,2v2.9c0,2,0,3.3.1,3.9,0,.5.3,1.1.6,1.6h-2.3c-.2-.5-.4-1-.4-1.6ZM414.5,1125.9c-.8.3-2,.6-3.6.8-.9.1-1.5.3-1.9.4-.4.2-.7.4-.9.7s-.3.7-.3,1c0,.6.2,1.1.7,1.5s1.1.6,1.9.6,1.6-.2,2.3-.6c.7-.4,1.1-.9,1.5-1.5.2-.5.4-1.2.4-2.2v-.8Z"/>
      <path class="st10" d="M419.8,1133.4l2.1.3c0,.7.3,1.1.7,1.4.5.4,1.3.6,2.2.6s1.8-.2,2.4-.6c.6-.4.9-1,1.1-1.7.1-.4.2-1.4.2-2.8-1,1.1-2.2,1.7-3.6,1.7s-3.2-.6-4.1-1.9-1.5-2.8-1.5-4.6.2-2.4.7-3.4c.4-1,1.1-1.9,1.9-2.4.9-.6,1.8-.9,3-.9s2.8.6,3.8,1.9v-1.6h2v11.2c0,2-.2,3.4-.6,4.3-.4.8-1.1,1.5-2,2s-2,.7-3.3.7-2.8-.3-3.7-1c-1-.7-1.4-1.7-1.4-3.1ZM421.6,1125.6c0,1.7.3,2.9,1,3.7s1.5,1.2,2.5,1.2,1.9-.4,2.5-1.2,1-2,1-3.7-.4-2.8-1.1-3.6-1.6-1.2-2.5-1.2-1.8.4-2.5,1.2c-.7.8-1,2-1,3.5Z"/>
      <path class="st10" d="M442.9,1128.2l2.3.3c-.4,1.3-1,2.4-2,3.1-1,.7-2.2,1.1-3.7,1.1s-3.4-.6-4.5-1.8c-1.1-1.2-1.7-2.8-1.7-4.9s.6-3.9,1.7-5.1,2.6-1.8,4.4-1.8,3.1.6,4.2,1.8c1.1,1.2,1.6,2.8,1.6,5s0,.3,0,.6h-9.7c0,1.4.5,2.5,1.2,3.3.7.8,1.6,1.1,2.7,1.1s1.5-.2,2.1-.6,1-1.1,1.4-2ZM435.7,1124.6h7.2c0-1.1-.4-1.9-.8-2.5-.7-.8-1.6-1.3-2.7-1.3s-1.9.3-2.5,1c-.7.7-1.1,1.6-1.1,2.7Z"/>
      <path class="st10" d="M454.5,1132.7l1.1-5.2h-2.1v-1.8h2.4l.9-4.4h-3.3v-1.8h3.7l1.1-5.2h1.8l-1.1,5.2h3.8l1.1-5.2h1.8l-1.1,5.2h2.1v1.8h-2.5l-.9,4.4h3.4v1.8h-3.8l-1.1,5.2h-1.8l1.1-5.2h-3.8l-1.1,5.2h-1.8ZM457.8,1125.6h3.8l.9-4.4h-3.8l-.9,4.4Z"/>
      <path class="st10" d="M473.6,1130.4l.3,1.9c-.6.1-1.2.2-1.7.2-.8,0-1.4-.1-1.9-.4-.4-.3-.7-.6-.9-1-.2-.4-.3-1.3-.3-2.6v-7.5h-1.6v-1.7h1.6v-3.2l2.2-1.3v4.5h2.2v1.7h-2.2v7.6c0,.6,0,1,.1,1.2,0,.2.2.3.4.4.2.1.4.2.8.2s.6,0,1,0Z"/>
      <path class="st10" d="M475.8,1117v-2.5h2.2v2.5h-2.2ZM475.8,1132.4v-13h2.2v13h-2.2Z"/>
      <path class="st10" d="M481.3,1132.4v-17.9h2.2v10.2l5.2-5.3h2.8l-5,4.8,5.5,8.2h-2.7l-4.3-6.6-1.6,1.5v5.1h-2.2Z"/>
      <path class="st10" d="M498.6,1130.4l.3,1.9c-.6.1-1.2.2-1.7.2-.8,0-1.4-.1-1.9-.4-.4-.3-.7-.6-.9-1-.2-.4-.3-1.3-.3-2.6v-7.5h-1.6v-1.7h1.6v-3.2l2.2-1.3v4.5h2.2v1.7h-2.2v7.6c0,.6,0,1,.1,1.2,0,.2.2.3.4.4.2.1.4.2.8.2s.6,0,1,0Z"/>
      <path class="st10" d="M499.9,1125.9c0-2.4.7-4.2,2-5.3,1.1-1,2.5-1.4,4.1-1.4s3.2.6,4.4,1.8,1.7,2.8,1.7,4.8-.2,3-.8,3.9c-.5,1-1.2,1.7-2.2,2.2-1,.5-2,.8-3.1.8-1.8,0-3.3-.6-4.4-1.7-1.1-1.2-1.7-2.8-1.7-5ZM502.2,1125.9c0,1.7.4,2.9,1.1,3.7.7.8,1.6,1.2,2.7,1.2s2-.4,2.7-1.2c.7-.8,1.1-2.1,1.1-3.8s-.4-2.8-1.1-3.6c-.7-.8-1.6-1.2-2.7-1.2s-2,.4-2.7,1.2-1.1,2.1-1.1,3.7Z"/>
      <path class="st10" d="M514.7,1132.4v-17.9h2.2v10.2l5.2-5.3h2.8l-5,4.8,5.5,8.2h-2.7l-4.3-6.6-1.6,1.5v5.1h-2.2Z"/>
    </g>
    <circle class="st2" cx="476.9" cy="299.4" r="39.4"/>
    <ellipse class="st8" cx="479.9" cy="309.3" rx="22.5" ry="20.2"/>
    <ellipse class="st8" cx="470.4" cy="291.6" rx="6.4" ry="7.8"/>
    <ellipse class="st8" cx="493.4" cy="291.8" rx="5.4" ry="6.6"/>
    <ellipse class="st9" cx="459.6" cy="277.2" rx="15.2" ry="6.9" transform="translate(-76 312.8) rotate(-34.9)"/>
    <ellipse class="st10" cx="130.7" cy="96.3" rx="107.8" ry="80.1"/>
    <polygon class="st10" points="192.3 192.1 138.2 161.7 130.7 131.2 208 131.2 192.3 192.1"/>
    <g>
      <path d="M109.5,126.1v-5.3h3.5v5.3h-3.5Z"/>
      <path d="M119.1,126.1v-5.3h3.5v5.3h-3.5Z"/>
      <path d="M128.7,126.1v-5.3h3.5v5.3h-3.5Z"/>
    </g>
  </g>
  <g id="Layer_3">
    <g id="e48f80a806">
      <g class="st13">
        <path class="st4" d="M483.7,674.3v-16.1c0-.7-.5-1.2-1.2-1.2-16,.6-28.7,14.1-28.7,30.6s.2,3.8.5,5.6c.2,1.1,1.7,1.3,2.1.3,4.5-10.3,14.5-17.6,26.1-18,.6,0,1.1-.5,1.1-1.1Z"/>
      </g>
      <path class="st10" d="M482.6,648.5v34.2c0,1.7,1.8,2.6,2.9,1.5l18-17.1c.8-.8.8-2.3,0-3.1l-18-17.1c-1.2-1.1-2.9-.2-2.9,1.5Z"/>
      <g class="st5">
        <path class="st4" d="M496.7,396.8c-2.8-14.5-20.4-14.7-24.8-1.2-4.3-13.5-22-13.3-24.8,1.2-2.6,13.1,24.8,33.8,24.8,33.8,0,0,27.3-20.7,24.8-33.8Z"/>
      </g>
      <g class="st7">
        <path class="st4" d="M473,557.9c-6.5,0-12.6-2.5-17.2-7.1-4.6-4.6-7.1-10.7-7.1-17.2s2.5-12.6,7.1-17.2c4.6-4.6,10.7-7.1,17.2-7.1s12.6,2.5,17.2,7.1,7.1,10.7,7.1,17.2-1,7-1.1,7.1c-.4,1.3-.9,2.6-1.6,3.9l2.4,12.1c0,.2,0,.5-.2.7-.2.2-.4.3-.6.2l-12.3-2.2c-1.3.7-2.7,1.2-4.1,1.6-.1,0-3.4,1-6.8,1Z"/>
      </g>
      <g class="st6">
        <path class="st4" d="M497.3,798.8c0,7.2,0,14.4,0,21.6,0,1-.4,2.3-1.1,2.9-1.1.9-2.2-.2-3.1-.9-4.1-3.3-8.3-6.5-12.3-9.9-1.1-.9-1.8-1-3,0-4.3,3.5-8.6,6.9-13,10.2-.7.5-2.1.9-2.8.6-.6-.2-1-1.6-1-2.5,0-14.7,0-29.3,0-44,0-2.7,1.1-3.8,3.8-3.8,9.7,0,19.3,0,29,0,2.7,0,3.7,1.1,3.7,3.8,0,7.3,0,14.7,0,22h0"/>
      </g>
      <path class="st4" d="M449.6,464v-18.3h2.5v16.3h9.2v2h-11.7Z"/>
      <path class="st4" d="M464,446.9v-2.2h2.3v2.2h-2.3ZM464,464v-14.1h2.3v14.1h-2.3Z"/>
      <path class="st4" d="M478.8,464l-4.7-6.4-1.7,1.4v5h-2.3v-19.3h2.3v12l6.2-6.8h2.7l-5.7,6,6,8h-2.7Z"/>
      <path class="st4" d="M485,457.4c0,1.6.3,2.9,1,3.7.7.9,1.6,1.3,2.9,1.3s1.8-.2,2.4-.6c.6-.4,1-.9,1.2-1.5l2.1.6c-.8,2.2-2.8,3.3-5.7,3.3s-3.7-.6-4.7-1.8c-1.1-1.2-1.6-3.1-1.6-5.5s.5-4.1,1.6-5.3c1.1-1.2,2.6-1.9,4.6-1.9,4.1,0,6.2,2.5,6.2,7.5v.3h-10ZM492.7,455.6c-.1-1.5-.5-2.6-1.1-3.2-.6-.7-1.5-1-2.7-1s-2,.4-2.7,1.1c-.7.8-1,1.8-1.1,3.1h7.6Z"/>
      <path class="st4" d="M431.7,584c-2,0-3.6.6-4.7,1.9-1.1,1.3-1.7,3.1-1.7,5.4s.6,4,1.8,5.4c1.2,1.4,2.8,2,4.8,2s4.5-1.3,5.8-3.8l2,1c-.7,1.6-1.8,2.8-3.2,3.6-1.4.8-2.9,1.2-4.7,1.2s-3.4-.4-4.8-1.1c-1.3-.8-2.4-1.9-3.1-3.3-.7-1.4-1-3.1-1-5.1,0-2.9.8-5.2,2.4-6.9,1.6-1.7,3.8-2.5,6.5-2.5s3.6.4,4.9,1.1c1.3.8,2.3,1.9,2.9,3.4l-2.3.8c-.4-1.1-1.1-1.9-2-2.4-.9-.6-2-.8-3.3-.8Z"/>
      <path class="st4" d="M454.3,593.5c0,2.5-.5,4.3-1.6,5.5-1.1,1.2-2.6,1.8-4.7,1.8s-3.6-.6-4.7-1.9c-1-1.3-1.6-3.1-1.6-5.4,0-4.8,2.1-7.3,6.3-7.3s3.7.6,4.7,1.8c1,1.2,1.5,3,1.5,5.5ZM451.8,593.5c0-1.9-.3-3.3-.9-4.2-.6-.9-1.5-1.3-2.9-1.3s-2.4.4-3,1.3c-.6.9-.9,2.3-.9,4.2s.3,3.2.9,4.2c.6.9,1.6,1.4,2.8,1.4s2.4-.4,3-1.3c.6-.9.9-2.3.9-4.2Z"/>
      <path class="st4" d="M465.4,600.6v-8.9c0-1.4-.2-2.3-.6-2.8-.4-.5-1-.8-2-.8s-1.8.4-2.4,1.1c-.6.8-.9,1.8-.9,3.2v8.1h-2.3v-11.1c0-1.6,0-2.6,0-3h2.2s0,.2,0,.3c0,.2,0,.4,0,.7,0,.2,0,.7,0,1.4h0c.5-1,1.1-1.7,1.7-2.1.7-.4,1.5-.6,2.4-.6s1.9.2,2.5.6c.6.4,1.1,1.1,1.3,2h0c.5-.9,1.1-1.6,1.8-2,.7-.4,1.5-.6,2.5-.6,1.4,0,2.5.4,3.1,1.1.6.8,1,2,1,3.8v9.4h-2.3v-8.9c0-1.4-.2-2.3-.6-2.8-.4-.5-1-.8-2-.8s-1.8.4-2.4,1.1c-.6.8-.8,1.8-.8,3.2v8.1h-2.3Z"/>
      <path class="st4" d="M487.5,600.6v-8.9c0-1.4-.2-2.3-.6-2.8-.4-.5-1-.8-2-.8s-1.8.4-2.4,1.1c-.6.8-.9,1.8-.9,3.2v8.1h-2.3v-11.1c0-1.6,0-2.6,0-3h2.2s0,.2,0,.3c0,.2,0,.4,0,.7,0,.2,0,.7,0,1.4h0c.5-1,1.1-1.7,1.7-2.1.7-.4,1.5-.6,2.4-.6s1.9.2,2.5.6c.6.4,1.1,1.1,1.3,2h0c.5-.9,1.1-1.6,1.8-2,.7-.4,1.5-.6,2.5-.6,1.4,0,2.5.4,3.1,1.1.6.8,1,2,1,3.8v9.4h-2.3v-8.9c0-1.4-.2-2.3-.6-2.8-.4-.5-1-.8-2-.8s-1.8.4-2.4,1.1c-.6.8-.8,1.8-.8,3.2v8.1h-2.3Z"/>
      <path class="st4" d="M503.3,594.1c0,1.6.3,2.9,1,3.7.7.9,1.6,1.3,2.9,1.3s1.8-.2,2.4-.6c.6-.4,1-.9,1.2-1.5l2.1.6c-.8,2.2-2.8,3.3-5.7,3.3s-3.7-.6-4.7-1.8c-1.1-1.2-1.6-3.1-1.6-5.5s.5-4.1,1.6-5.3c1.1-1.2,2.6-1.9,4.6-1.9,4.1,0,6.2,2.5,6.2,7.5v.3h-10ZM510.9,592.3c-.1-1.5-.5-2.6-1.1-3.2-.6-.7-1.5-1-2.7-1s-2,.4-2.7,1.1c-.7.8-1,1.8-1.1,3.1h7.6Z"/>
      <path class="st4" d="M525.2,600.6v-8.9c0-.9,0-1.6-.3-2.1-.2-.5-.5-.9-.9-1.1-.4-.2-1-.3-1.8-.3-1.1,0-2,.4-2.7,1.2-.6.8-1,1.8-1,3.2v8.1h-2.3v-11.1c0-1.6,0-2.6,0-3h2.2s0,.2,0,.3c0,.2,0,.4,0,.7,0,.2,0,.7,0,1.4h0c.5-1,1.2-1.7,1.9-2.1.7-.4,1.6-.6,2.6-.6,1.5,0,2.7.4,3.4,1.1.7.8,1.1,2,1.1,3.8v9.4h-2.3Z"/>
      <path class="st4" d="M536.5,600.5c-.8.2-1.6.3-2.4.3-1.9,0-2.8-1.1-2.8-3.2v-9.4h-1.6v-1.7h1.7l.7-3.1h1.6v3.1h2.6v1.7h-2.6v8.9c0,.7.1,1.2.3,1.4.2.3.6.4,1.1.4s.8,0,1.3-.2v1.7Z"/>
      <path class="st4" d="M455.9,722.7c0,1.7-.7,3-2,3.9-1.3.9-3.2,1.4-5.6,1.4-4.5,0-7-1.6-7.7-4.7l2.4-.5c.3,1.1.9,1.9,1.8,2.4.9.5,2.1.8,3.7.8s2.8-.3,3.7-.8c.9-.6,1.3-1.4,1.3-2.4s-.1-1.1-.4-1.4c-.3-.4-.7-.7-1.2-.9-.5-.2-1.1-.4-1.8-.6-.7-.2-1.4-.3-2.3-.5-1.4-.3-2.5-.6-3.3-.9-.7-.3-1.3-.7-1.8-1.1-.4-.4-.8-.9-1-1.4-.2-.5-.3-1.1-.3-1.8,0-1.6.6-2.8,1.8-3.6,1.2-.9,2.9-1.3,5.1-1.3s3.7.3,4.8,1c1.1.6,1.9,1.7,2.3,3.2l-2.4.4c-.3-1-.8-1.7-1.5-2.1-.7-.4-1.8-.7-3.1-.7s-2.6.2-3.4.7c-.8.5-1.1,1.2-1.1,2.2s.1,1,.4,1.4.7.7,1.3.9c.6.3,1.7.6,3.4.9.6.1,1.1.2,1.7.4.6.1,1.1.3,1.6.5.5.2,1,.4,1.4.7.4.2.8.5,1.1.9.3.4.6.8.8,1.3.2.5.3,1.1.3,1.7Z"/>
      <path class="st4" d="M461.2,716.1c.5-.9,1.1-1.6,1.8-2,.7-.4,1.6-.6,2.7-.6s2.6.4,3.4,1.1c.7.8,1.1,2,1.1,3.8v9.4h-2.3v-8.9c0-1,0-1.7-.3-2.2-.2-.5-.5-.8-.9-1-.4-.2-1-.3-1.7-.3-1.1,0-2,.4-2.6,1.1-.7.8-1,1.8-1,3.1v8.3h-2.3v-19.3h2.3v5c0,.5,0,1.1,0,1.6,0,.6,0,.9,0,1h0Z"/>
      <path class="st4" d="M477.3,728c-1.4,0-2.5-.4-3.2-1.1-.7-.8-1.1-1.8-1.1-3.1s.5-2.6,1.4-3.3c1-.8,2.5-1.2,4.6-1.3h3.1v-.8c0-1.1-.2-2-.7-2.4-.5-.5-1.2-.7-2.3-.7s-1.8.2-2.3.5c-.5.3-.8.9-.8,1.7l-2.4-.2c.4-2.5,2.3-3.8,5.6-3.8s3.1.4,4,1.2c.9.8,1.3,2,1.3,3.5v6c0,.7,0,1.2.3,1.6.2.3.5.5,1,.5s.5,0,.8,0v1.4c-.6.1-1.2.2-1.8.2-.9,0-1.5-.2-1.9-.7-.4-.5-.6-1.2-.7-2.1h0c-.6,1.1-1.3,1.8-2.1,2.3-.8.4-1.7.7-2.9.7ZM477.8,726.2c.9,0,1.6-.2,2.3-.6.7-.4,1.2-.9,1.6-1.6.4-.7.6-1.4.6-2.1v-1.1h-2.5c-1.1,0-1.9.2-2.5.4-.6.2-1,.5-1.3,1-.3.4-.4,1-.4,1.7s.2,1.3.6,1.8c.4.4,1,.6,1.8.6Z"/>
      <path class="st4" d="M488.5,727.7v-10.8c0-1,0-2.1,0-3.3h2.2c0,1.6,0,2.6,0,2.9h0c.4-1.2.8-2,1.3-2.5.5-.4,1.2-.7,2-.7s.6,0,.9.1v2.1c-.3,0-.7-.1-1.2-.1-1,0-1.7.4-2.2,1.3-.5.8-.8,2-.8,3.6v7.3h-2.3Z"/>
      <path class="st4" d="M499.1,721.2c0,1.6.3,2.9,1,3.7.7.9,1.6,1.3,2.9,1.3s1.8-.2,2.4-.6c.6-.4,1-.9,1.2-1.5l2.1.6c-.8,2.2-2.8,3.3-5.7,3.3s-3.7-.6-4.7-1.8c-1.1-1.2-1.6-3.1-1.6-5.5s.5-4.1,1.6-5.3c1.1-1.2,2.6-1.9,4.6-1.9,4.1,0,6.2,2.5,6.2,7.5v.3h-10ZM506.8,719.4c-.1-1.5-.5-2.6-1.1-3.2-.6-.7-1.5-1-2.7-1s-2,.4-2.7,1.1c-.7.8-1,1.8-1.1,3.1h7.6Z"/>
      <path class="st4" d="M465.3,851.9c0,1.7-.7,3-2,3.9-1.3.9-3.2,1.4-5.6,1.4-4.5,0-7-1.6-7.7-4.7l2.4-.5c.3,1.1.9,1.9,1.8,2.4.9.5,2.1.8,3.7.8s2.8-.3,3.7-.8c.9-.6,1.3-1.4,1.3-2.4s-.1-1.1-.4-1.4c-.3-.4-.7-.7-1.2-.9-.5-.2-1.1-.4-1.8-.6-.7-.2-1.4-.3-2.3-.5-1.4-.3-2.5-.6-3.3-.9-.7-.3-1.3-.7-1.8-1.1-.4-.4-.8-.9-1-1.4-.2-.5-.3-1.1-.3-1.8,0-1.6.6-2.8,1.8-3.6,1.2-.9,2.9-1.3,5.1-1.3s3.7.3,4.8,1c1.1.6,1.9,1.7,2.3,3.2l-2.4.4c-.3-1-.8-1.7-1.5-2.1-.7-.4-1.8-.7-3.1-.7s-2.6.2-3.4.7c-.8.5-1.1,1.2-1.1,2.2s.1,1,.4,1.4.7.7,1.3.9c.6.3,1.7.6,3.4.9.6.1,1.1.2,1.7.4.6.1,1.1.3,1.6.5.5.2,1,.4,1.4.7.4.2.8.5,1.1.9.3.4.6.8.8,1.3.2.5.3,1.1.3,1.7Z"/>
      <path class="st4" d="M471.9,857.3c-1.4,0-2.5-.4-3.2-1.1-.7-.8-1.1-1.8-1.1-3.1s.5-2.6,1.4-3.3c1-.8,2.5-1.2,4.6-1.3h3.1v-.8c0-1.1-.2-2-.7-2.4-.5-.5-1.2-.7-2.3-.7s-1.8.2-2.3.5c-.5.3-.8.9-.8,1.7l-2.4-.2c.4-2.5,2.3-3.8,5.6-3.8s3.1.4,4,1.2c.9.8,1.3,2,1.3,3.5v6c0,.7,0,1.2.3,1.6.2.3.5.5,1,.5s.5,0,.8,0v1.4c-.6.1-1.2.2-1.8.2-.9,0-1.5-.2-1.9-.7-.4-.5-.6-1.2-.7-2.1h0c-.6,1.1-1.3,1.8-2.1,2.3-.8.4-1.7.7-2.9.7ZM472.5,855.5c.9,0,1.6-.2,2.3-.6.7-.4,1.2-.9,1.6-1.6.4-.7.6-1.4.6-2.1v-1.1h-2.5c-1.1,0-1.9.2-2.5.4-.6.2-1,.5-1.3,1-.3.4-.4,1-.4,1.7s.2,1.3.6,1.8c.4.4,1,.6,1.8.6Z"/>
      <path class="st4" d="M489.3,857h-2.8l-5.1-14.1h2.5l3.1,9.1c.1.3.4,1.4.9,3.1l.4-1.5.5-1.5,3.2-9.2h2.5l-5.2,14.1Z"/>
      <path class="st4" d="M498.2,850.5c0,1.6.3,2.9,1,3.7.7.9,1.6,1.3,2.9,1.3s1.8-.2,2.4-.6c.6-.4,1-.9,1.2-1.5l2.1.6c-.8,2.2-2.8,3.3-5.7,3.3s-3.7-.6-4.7-1.8c-1.1-1.2-1.6-3.1-1.6-5.5s.5-4.1,1.6-5.3c1.1-1.2,2.6-1.9,4.6-1.9,4.1,0,6.2,2.5,6.2,7.5v.3h-10ZM505.8,848.7c-.1-1.5-.5-2.6-1.1-3.2-.6-.7-1.5-1-2.7-1s-2,.4-2.7,1.1c-.7.8-1,1.8-1.1,3.1h7.6Z"/>
    </g>
  </g>
</svg>