<?xml version="1.0" encoding="UTF-8"?>
<svg id="Layer_1" xmlns="http://www.w3.org/2000/svg" version="1.1" viewBox="0 0 316 442">
  <!-- Generator: Adobe Illustrator 29.2.1, SVG Export Plug-In . SVG Version: 2.1.0 Build 116)  -->
  <defs>
    <style>
      .st0 {
        fill: #515670;
      }

      .st1 {
        fill: #979bbf;
      }

      .st2 {
        fill: #bcc1e2;
      }

      .st3 {
        fill: #7f8cb2;
      }

      .st4 {
        fill: #bcc1dd;
      }
    </style>
  </defs>
  <path class="st3" d="M150.1,376.1h0c6.3,0,11.4,5.1,11.4,11.4v19.3c0,6.3-5.1,11.4-11.4,11.4h-19.3c-6.3,0-11.4-5.1-11.4-11.4h0c0-16.9,13.8-30.7,30.7-30.7Z" transform="translate(-72.2 33.5) rotate(-10.8)"/>
  <path class="st3" d="M208.2,361.3h0c16.9,0,30.7,13.8,30.7,30.7h0c0,6.3-5.1,11.4-11.4,11.4h-19.3c-6.3,0-11.4-5.1-11.4-11.4v-19.3c0-6.3,5.1-11.4,11.4-11.4Z" transform="translate(-68 47.8) rotate(-10.8)"/>
  <path class="st1" d="M17.9,205.3C6.2,110.9,16.1,30.3,108.3,12.6c90.4-17.3,130.7,53.7,155.2,145.6,39.9,150,67.5,162.4-90.4,192.6-152.7,29.3-136.3,6.5-155.2-145.6Z"/>
  <path class="st4" d="M276.2,249.4c13.8,101.2,44.3,109.7-98,133.6-123.4,20.8-101.4,32.7-140.4-88C3.5,188.9,9.5,203.2,139.5,178.3c131.8-25.2,122-36.7,136.7,71Z"/>
  <path class="st3" d="M267.6,140.4h0c16.9,0,30.7,13.8,30.7,30.7v137.4c0,6.3-5.1,11.4-11.4,11.4h-19.3c-6.3,0-11.4-5.1-11.4-11.4v-156.6c0-6.3,5.1-11.4,11.4-11.4Z" transform="translate(-38.4 56.3) rotate(-10.8)"/>
  <path class="st3" d="M44.7,190.5h0c6.3,0,11.4,5.1,11.4,11.4v156.6c0,6.3-5.1,11.4-11.4,11.4h-19.3c-6.3,0-11.4-5.1-11.4-11.4v-137.4c0-16.9,13.8-30.7,30.7-30.7Z" transform="translate(-52.1 11.6) rotate(-10.8)"/>
  <path class="st0" d="M92.5,132.4c9.3,0,18.3-8.2,17.9-17.9s-7.8-17.9-17.9-17.9-18.3,8.2-17.9,17.9,7.8,17.9,17.9,17.9h0Z"/>
  <path class="st0" d="M155,120.4c9.3,0,18.3-8.2,17.9-17.9s-7.8-17.9-17.9-17.9-18.3,8.2-17.9,17.9,7.8,17.9,17.9,17.9h0Z"/>
  <path class="st0" d="M126.7,136.1h9.4c4.9,0,9,4,9,9h0c0,4.7-3.8,8.4-8.4,8.4h-10.8c-4.5,0-8.2-3.7-8.2-8.2h0c0-5.1,4.1-9.2,9.2-9.2Z" transform="translate(287.4 262.4) rotate(169.2)"/>
  <g>
    <path class="st0" d="M114,262l-5,1v27c0,0-12.6,2.4-12.6,2.4l-10-25.1-5,1-.2,27.1-5.8,1.1.2-35.1,13.5-2.6,10.1,25.3,4-.8v-27.2c0,0,13.5-2.6,13.5-2.6l13.2,32.5-5.8,1.1-10.2-25.1Z"/>
    <path class="st0" d="M136.3,284.8l-6.5-33.8,6.5-1.2,6.5,33.8-6.5,1.2Z"/>
    <path class="st0" d="M192.7,266.7l1.3,7-7.4,1.4-20.6-10.1-8.1,1.6-1.3-6.7,23.1-4.4c2.5-.5,4.6-2,4.2-4.1-.4-2-2.7-2.8-5.5-2.3l-28.7,5.5,5.1,26.6-5.5,1-6.5-33.8,27.8-5.3c5.4-1,15.6-1.8,17.2,6.6,1.6,8.2-4.5,11.9-12.2,13.4l-1.3.2,10,4.8,8.2-1.6Z"/>
    <path class="st0" d="M237,230.5l6.5,33.8-11.4,2.2-25.6-22.2-5.6,1.1,5,26.1-5.4,1-6.5-33.8,11.4-2.2,25.5,22.1,5.7-1.1-5-26.1,5.4-1Z"/>
  </g>
  <circle class="st2" cx="89.7" cy="122.5" r="4.6"/>
  <circle class="st2" cx="151.7" cy="110.6" r="4.6"/>
</svg>