<?xml version="1.0" encoding="UTF-8"?>
<svg id="Layer_1" xmlns="http://www.w3.org/2000/svg" version="1.1" viewBox="0 0 337 442">
  <!-- Generator: Adobe Illustrator 29.2.1, SVG Export Plug-In . SVG Version: 2.1.0 Build 116)  -->
  <defs>
    <style>
      .st0 {
        fill: #515670;
      }

      .st1 {
        fill: #979bbf;
      }

      .st2 {
        fill: #bcc1e2;
      }

      .st3 {
        fill: #7f8cb2;
      }

      .st4 {
        fill: #bcc1dd;
      }
    </style>
  </defs>
  <path class="st3" d="M115.9,366.3h0c6.3,0,11.4,5.1,11.4,11.4v19.3c0,6.3-5.1,11.4-11.4,11.4h-19.3c-6.3,0-11.4-5.1-11.4-11.4h0c0-16.9,13.8-30.7,30.7-30.7Z" transform="translate(64.1 -12.1) rotate(9.3)"/>
  <path class="st3" d="M174.4,379h0c16.9,0,30.7,13.8,30.7,30.7h0c0,6.3-5.1,11.4-11.4,11.4h-19.3c-6.3,0-11.4-5.1-11.4-11.4v-19.3c0-6.3,5.1-11.4,11.4-11.4Z" transform="translate(67.2 -24.5) rotate(9.3)"/>
  <path class="st1" d="M57.4,164.9C78.9,72.3,116,0,208.6,15.2c90.8,14.9,104.2,95.5,95.5,190.2-14.2,154.5,7.4,175.7-151.2,149.7C-.6,329.9,22.7,314.2,57.4,164.9Z"/>
  <path class="st4" d="M284.7,295.4c-21.9,99.8,3.8,118.3-138,91.7-123-23-106.5-4.2-101.5-131,4.4-111.4,5.1-95.9,135.7-74.5,132.4,21.7,127.2,7.6,103.9,113.8Z"/>
  <path class="st3" d="M282.6,187.9h0c16.9,0,30.7,13.8,30.7,30.7v137.4c0,6.3-5.1,11.4-11.4,11.4h-19.3c-6.3,0-11.4-5.1-11.4-11.4v-156.6c0-6.3,5.1-11.4,11.4-11.4Z" transform="translate(48.8 -43.6) rotate(9.3)"/>
  <path class="st3" d="M57.3,151.5h0c6.3,0,11.4,5.1,11.4,11.4v156.6c0,6.3-5.1,11.4-11.4,11.4h-19.3c-6.3,0-11.4-5.1-11.4-11.4v-137.4c0-16.9,13.8-30.7,30.7-30.7Z" transform="translate(39.7 -4.5) rotate(9.3)"/>
  <path class="st0" d="M158.7,123.3c9.3,0,18.3-8.2,17.9-17.9s-7.8-17.9-17.9-17.9-18.3,8.2-17.9,17.9,7.8,17.9,17.9,17.9h0Z"/>
  <path class="st0" d="M221.5,133.6c9.3,0,18.3-8.2,17.9-17.9s-7.8-17.9-17.9-17.9-18.3,8.2-17.9,17.9,7.8,17.9,17.9,17.9h0Z"/>
  <path class="st0" d="M177.1,138.1h15.4c4.9,0,9,4,9,9h0c0,4.7-3.8,8.4-8.4,8.4h-16.8c-4.5,0-8.2-3.7-8.2-8.2h0c0-5.1,4.1-9.2,9.2-9.2Z" transform="translate(343.1 321.5) rotate(-170.7)"/>
  <g>
    <path class="st0" d="M128.1,251.4l-5-.8-9.4,25.4-12.6-2.1-.8-27-5-.8-9.5,25.3-5.8-.9,12.3-32.8,13.5,2.2.8,27.2,4,.7,9.5-25.5,13.5,2.2,1.2,35.1-5.8-.9-.9-27Z"/>
    <path class="st0" d="M141.1,280.4l5.6-34,6.5,1.1-5.6,34-6.5-1.1Z"/>
    <path class="st0" d="M200.3,282.8l-1.2,7.1-7.4-1.2-15.8-16.6-8.2-1.3,1.1-6.7,23.2,3.8c2.5.4,5-.3,5.3-2.4.3-2-1.5-3.6-4.4-4.1l-28.8-4.7-4.4,26.8-5.5-.9,5.6-34,27.9,4.6c5.4.9,15.3,3.7,13.9,12.1-1.4,8.2-8.3,9.6-16.1,8.4l-1.3-.2,7.7,8,8.3,1.4Z"/>
    <path class="st0" d="M254.4,264.1l-5.6,34-11.5-1.9-16.4-29.6-5.7-.9-4.3,26.2-5.4-.9,5.6-34,11.5,1.9,16.3,29.6,5.7.9,4.3-26.2,5.4.9Z"/>
  </g>
  <circle class="st2" cx="160.3" cy="116" r="4.6"/>
  <circle class="st2" cx="223.7" cy="125.2" r="4.6"/>
</svg>