<?xml version="1.0" encoding="UTF-8"?>
<svg id="Layer_1" xmlns="http://www.w3.org/2000/svg" version="1.1" viewBox="0 0 316 442">
  <!-- Generator: Adobe Illustrator 29.2.1, SVG Export Plug-In . SVG Version: 2.1.0 Build 116)  -->
  <defs>
    <style>
      .st0 {
        fill: #515670;
      }

      .st1 {
        fill: #979bbf;
      }

      .st2 {
        fill: #bcc1e2;
      }

      .st3 {
        fill: #7f8cb2;
      }

      .st4 {
        fill: #bcc1dd;
      }
    </style>
  </defs>
  <path class="st3" d="M106.2,366.4h0c6.4,0,11.5,5.2,11.5,11.5v19.4c0,6.4-5.2,11.5-11.5,11.5h-19.4c-6.4,0-11.5-5.2-11.5-11.5h0c0-17.1,13.9-31,31-31Z" transform="translate(59.3 -10.1) rotate(8.6)"/>
  <path class="st3" d="M165.3,378.3h0c17.1,0,31,13.9,31,31h0c0,6.4-5.2,11.5-11.5,11.5h-19.4c-6.4,0-11.5-5.2-11.5-11.5v-19.4c0-6.4,5.2-11.5,11.5-11.5Z" transform="translate(62 -21.7) rotate(8.6)"/>
  <path class="st1" d="M44.5,163.9C65.1,70.2,101.6-3.1,195.2,11.1c91.8,13.9,106.2,95,98.6,190.6-12.5,156,9.5,177.1-150.7,152.8C-12,331,11.2,314.9,44.5,163.9Z"/>
  <path class="st4" d="M275.3,292.7c-20.9,100.9,5.3,119.2-138.1,94.1-124.3-21.8-107.4-3-103.9-130.9,3.1-112.4,4-96.8,135.9-76.8,133.8,20.3,128.4,6.2,106.1,113.5Z"/>
  <path class="st3" d="M273,184.3h0c17.1,0,31,13.9,31,31v138.6c0,6.4-5.2,11.5-11.5,11.5h-19.4c-6.4,0-11.5-5.2-11.5-11.5v-158c0-6.4,5.2-11.5,11.5-11.5Z" transform="translate(44.5 -39.3) rotate(8.6)"/>
  <path class="st3" d="M45.3,150.5h0c6.4,0,11.5,5.2,11.5,11.5v158c0,6.4-5.2,11.5-11.5,11.5h-19.4c-6.4,0-11.5-5.2-11.5-11.5v-138.6c0-17.1,13.9-31,31-31Z" transform="translate(36.6 -2.6) rotate(8.6)"/>
  <path class="st0" d="M145.9,120.5c9.3,0,18.3-8.2,17.9-17.9s-7.8-17.9-17.9-17.9-18.3,8.2-17.9,17.9,7.8,17.9,17.9,17.9h0Z"/>
  <path class="st0" d="M209.4,130.2c9.3,0,18.3-8.2,17.9-17.9s-7.8-17.9-17.9-17.9-18.3,8.2-17.9,17.9,7.8,17.9,17.9,17.9h0Z"/>
  <path class="st0" d="M170.9,135.8h3.6c6.6,0,12,5.4,12,12h0c0,3.1-2.5,5.6-5.6,5.6h-16.9c-2.9,0-5.2-2.3-5.2-5.2v-.2c0-6.7,5.5-12.2,12.2-12.2Z" transform="translate(321.5 313.4) rotate(-171.4)"/>
  <g>
    <path class="st0" d="M116.8,250.2l-5.1-.8-9.2,25.7-12.8-1.9-1.1-27.2-5.1-.8-9.3,25.7-5.9-.9,12-33.3,13.7,2.1,1.1,27.5,4.1.6,9.2-25.9,13.6,2.1,1.7,35.4-5.9-.9-1.2-27.3Z"/>
    <path class="st0" d="M130.3,279.3l5.2-34.3,6.6,1-5.2,34.3-6.6-1Z"/>
    <path class="st0" d="M190,281.1l-1.1,7.2-7.5-1.1-16.2-16.5-8.2-1.3,1-6.8,23.4,3.6c2.5.4,5-.3,5.3-2.5.3-2.1-1.6-3.6-4.5-4l-29.1-4.4-4.1,27.1-5.6-.8,5.2-34.3,28.2,4.3c5.4.8,15.5,3.6,14.2,12.1-1.3,8.3-8.3,9.8-16.1,8.6l-1.3-.2,7.9,8,8.4,1.3Z"/>
    <path class="st0" d="M244.3,261.5l-5.2,34.3-11.6-1.8-16.9-29.7-5.7-.9-4,26.5-5.5-.8,5.2-34.3,11.6,1.8,16.8,29.6,5.8.9,4-26.5,5.5.8Z"/>
  </g>
  <circle class="st2" cx="147" cy="110.3" r="4.6"/>
  <circle class="st2" cx="210.9" cy="120" r="4.6"/>
</svg>