<?xml version="1.0" encoding="UTF-8"?>
<svg xmlns="http://www.w3.org/2000/svg" xmlns:xlink="http://www.w3.org/1999/xlink" version="1.1" viewBox="0 0 960 540">
  <!-- Generator: Adobe Illustrator 29.2.1, SVG Export Plug-In . SVG Version: 2.1.0 Build 116)  -->
  <defs>
    <style>
      .st0 {
        fill: #6d6d6d;
      }

      .st1 {
        font-family: PuffinArcade-Liquid, 'Puffin Arcade';
        font-size: 49.9px;
      }

      .st1, .st2 {
        fill: #fff;
      }

      .st3 {
        fill: #939393;
      }

      .st4 {
        fill: url(#radial-gradient);
      }

      .st5 {
        fill: #5964b5;
      }

      .st6 {
        fill: url(#linear-gradient);
      }

      .st2 {
        font-size: 28.5px;
      }

      .st2, .st7 {
        font-family: BebasNeue-Regular, 'Bebas Neue';
      }

      .st8 {
        fill: #2d2d4f;
      }

      .st7 {
        fill: #d8d8d8;
        font-size: 21.7px;
      }

      .st9 {
        fill: url(#linear-gradient1);
        fill-rule: evenodd;
      }

      .st10 {
        display: none;
      }
    </style>
    <radialGradient id="radial-gradient" cx="478.9" cy="271.6" fx="478.9" fy="271.6" r="458.2" gradientTransform="translate(-53.2 -3.1) scale(1.1 1)" gradientUnits="userSpaceOnUse">
      <stop offset="0" stop-color="#999"/>
      <stop offset=".1" stop-color="#c4c4c4"/>
      <stop offset=".2" stop-color="#b1b2b6"/>
      <stop offset="1" stop-color="#383d59"/>
    </radialGradient>
    <linearGradient id="linear-gradient" x1="480.6" y1="534.7" x2="480.6" y2="490.1" gradientUnits="userSpaceOnUse">
      <stop offset="0" stop-color="#ccc"/>
      <stop offset=".2" stop-color="#666"/>
      <stop offset=".3" stop-color="#eaeaea"/>
      <stop offset=".4" stop-color="#f2f2f2"/>
      <stop offset="1" stop-color="#666"/>
    </linearGradient>
    <linearGradient id="linear-gradient1" x1="200.9" y1="461" x2="760.3" y2="461" gradientUnits="userSpaceOnUse">
      <stop offset="0" stop-color="#b3b3b3"/>
      <stop offset="1" stop-color="#e6e6e6"/>
    </linearGradient>
  </defs>
  <g id="background">
    <rect class="st4" x="-1" y="-1" width="963" height="541.2"/>
  </g>
  <g id="computer">
    <rect class="st0" x="200.5" y="108.1" width="560" height="378.4" rx="46.8" ry="46.8"/>
    <g>
      <rect class="st8" x="225.9" y="132.4" width="509.3" height="281.8"/>
      <path d="M734.7,132.9v280.8H226.4V132.9h508.3M735.7,131.9H225.4v282.8h510.3V131.9h0Z"/>
    </g>
    <path class="st6" d="M538.7,522.9l-7.8-37h-103.7l-8.3,37.2c-.4,2-1.9,3.7-3.9,4.5l-23,9.5h177.3s-26.4-9.6-26.4-9.6c-2.2-.8-3.7-2.5-4.2-4.7Z"/>
    <path class="st9" d="M733.2,486.3H224.2c-12.9,0-23.3-10.4-23.3-23.3v-27.3h559.4v23.8c0,14.6-12.5,26.8-27.1,26.8Z"/>
    <rect class="st3" x="391.6" y="536.8" width="177.9" height="3.7" rx="1.8" ry="1.8"/>
  </g>
  <g id="text" class="st10">
    <text class="st7" transform="translate(289.8 231.3)"><tspan x="0" y="0">This game mirrors real-life common online risks.</tspan><tspan x="-60.7" y="26.1">Start to find out if you can avoid these online harms caused by AI!</tspan></text>
    <text class="st1" transform="translate(236.7 163.7)"><tspan x="0" y="0">Welcome to MirrorNet</tspan></text>
    <rect class="st5" x="409.9" y="297.4" width="112.3" height="44.7" rx="22.3" ry="22.3"/>
    <text class="st2" transform="translate(445.2 330.3)"><tspan x="0" y="0">Next</tspan></text>
  </g>
</svg>