<?xml version="1.0" encoding="UTF-8"?>
<svg xmlns="http://www.w3.org/2000/svg" xmlns:xlink="http://www.w3.org/1999/xlink" version="1.1" viewBox="0 0 1800 960">
  <!-- Generator: Adobe Illustrator 29.2.1, SVG Export Plug-In . SVG Version: 2.1.0 Build 116)  -->
  <defs>
    <style>
      .st0 {
        fill: #6d6d6d;
      }

      .st1 {
        fill: #939393;
      }

      .st2 {
        fill: url(#radial-gradient);
      }

      .st3 {
        fill: #5964b5;
      }

      .st4 {
        fill: url(#linear-gradient);
      }

      .st5 {
        fill: #d8d8d8;
        font-size: 40.9px;
      }

      .st5, .st6 {
        font-family: BebasNeue-Regular, 'Bebas Neue';
      }

      .st7 {
        font-family: PuffinArcade-Liquid, 'Puffin Arcade';
        font-size: 93.8px;
      }

      .st7, .st6 {
        fill: #fff;
      }

      .st8 {
        fill: #2d2d4f;
      }

      .st6 {
        font-size: 53.6px;
      }

      .st9 {
        fill: url(#linear-gradient1);
        fill-rule: evenodd;
      }

      .st10 {
        display: none;
      }
    </style>
    <radialGradient id="radial-gradient" cx="901" cy="482" fx="901" fy="482" r="764.2" gradientTransform="translate(-154.8 -4) scale(1.2 1)" gradientUnits="userSpaceOnUse">
      <stop offset="0" stop-color="#999"/>
      <stop offset="0" stop-color="#c4c4c4"/>
      <stop offset=".2" stop-color="#b1b2b6"/>
      <stop offset="1" stop-color="#383d59"/>
    </radialGradient>
    <linearGradient id="linear-gradient" x1="891.7" y1="945.9" x2="891.8" y2="856.4" gradientUnits="userSpaceOnUse">
      <stop offset="0" stop-color="#ccc"/>
      <stop offset=".2" stop-color="#666"/>
      <stop offset=".3" stop-color="#eaeaea"/>
      <stop offset=".4" stop-color="#f2f2f2"/>
      <stop offset="1" stop-color="#666"/>
    </linearGradient>
    <linearGradient id="linear-gradient1" x1="330.9" y1="798.1" x2="1452.4" y2="798.1" gradientUnits="userSpaceOnUse">
      <stop offset="0" stop-color="#b3b3b3"/>
      <stop offset="1" stop-color="#e6e6e6"/>
    </linearGradient>
  </defs>
  <g id="background">
    <rect class="st2" x="1" y="-1" width="1799" height="962"/>
  </g>
  <g id="computer">
    <rect class="st0" x="330.3" y="90.8" width="1122.7" height="758.6" rx="46.8" ry="46.8"/>
    <g>
      <rect class="st8" x="380.6" y="138.9" width="1022" height="565.9"/>
      <path d="M1402.2,139.4v564.9H381.1V139.4h1021M1403.2,138.4H380.1v566.9h1023V138.4h0Z"/>
    </g>
    <path class="st4" d="M1008.1,922.3l-15.6-74.1h-208l-16.6,74.6c-.9,4-3.8,7.3-7.8,9l-46.2,19h355.5s-52.9-19.2-52.9-19.2c-4.3-1.6-7.5-5.1-8.4-9.3Z"/>
    <path class="st9" d="M1398.1,848.8H377.7c-25.8,0-46.8-20.9-46.8-46.8v-54.6h1121.5v47.6c0,29.3-25,53.8-54.3,53.8Z"/>
    <rect class="st1" x="713.3" y="950.2" width="356.7" height="7.3" rx="3" ry="3"/>
  </g>
  <g id="text" class="st10">
    <text class="st5" transform="translate(577.4 425.6)"><tspan x="0" y="0">This game mirrors real-life common online risks.</tspan><tspan x="-114.2" y="49">Start to find out if you can avoid these online harms caused by AI!</tspan></text>
    <text class="st7" transform="translate(477.4 298.4)"><tspan x="0" y="0">Welcome to MirrorNet</tspan></text>
    <rect class="st3" x="803.5" y="549.9" width="211.3" height="84.1" rx="26.7" ry="26.7"/>
    <text class="st6" transform="translate(869.9 612)"><tspan x="0" y="0">Next</tspan></text>
  </g>
</svg>